<svg id="svg" version="1.1" xmlns="http://www.w3.org/2000/svg" xmlns:xlink="http://www.w3.org/1999/xlink" width="400" height="400" viewBox="0, 0, 400,400"><g id="svgg"><path id="path0" d="M173.600 0.348 C 173.600 0.820,180.352 1.320,182.155 0.982 C 185.060 0.437,183.478 0.000,178.600 0.000 C 175.850 0.000,173.600 0.157,173.600 0.348 M216.000 0.365 C 216.000 1.000,219.133 1.290,222.829 0.998 C 228.109 0.580,227.162 0.000,221.200 0.000 C 218.334 0.000,216.000 0.164,216.000 0.365 M163.400 1.097 C 161.991 2.163,162.905 2.800,165.844 2.800 C 168.696 2.800,170.179 1.778,168.300 1.107 C 167.416 0.792,163.813 0.784,163.400 1.097 M231.680 1.164 C 230.283 2.081,231.419 2.800,234.267 2.800 C 236.899 2.800,237.200 2.721,237.200 2.027 C 237.200 0.917,233.046 0.268,231.680 1.164 M154.000 3.538 C 154.000 4.160,154.341 4.350,155.700 4.486 C 157.928 4.709,158.867 4.448,158.715 3.648 C 158.513 2.585,154.000 2.479,154.000 3.538 M241.433 3.457 C 241.119 4.277,241.262 4.422,242.451 4.491 C 245.054 4.643,245.951 4.410,245.890 3.600 C 245.809 2.521,241.842 2.393,241.433 3.457 M147.381 4.726 C 146.140 5.617,146.795 6.400,148.782 6.400 C 150.641 6.400,150.800 6.325,150.800 5.447 C 150.800 4.481,148.421 3.979,147.381 4.726 M249.485 4.648 C 248.498 5.635,249.245 6.400,251.197 6.400 C 253.042 6.400,253.185 6.331,253.060 5.500 C 252.923 4.587,250.196 3.937,249.485 4.648 M139.833 7.057 C 139.507 7.908,139.518 7.914,141.400 8.002 C 144.091 8.129,144.400 8.046,144.400 7.200 C 144.400 6.116,140.244 5.986,139.833 7.057 M256.000 7.157 C 256.000 8.100,256.568 8.290,258.575 8.015 C 260.077 7.810,260.117 7.767,259.446 7.100 C 258.448 6.106,256.000 6.147,256.000 7.157 M134.880 8.480 C 133.858 9.502,134.356 10.000,136.400 10.000 C 138.267 10.000,138.400 9.933,138.400 9.000 C 138.400 7.879,135.857 7.503,134.880 8.480 M261.867 8.267 C 261.225 8.908,261.625 10.000,262.500 9.995 C 264.618 9.982,265.297 9.570,264.554 8.749 C 263.887 8.012,262.390 7.744,261.867 8.267 M131.500 9.876 C 130.398 10.164,130.609 11.600,131.753 11.600 C 132.453 11.600,132.758 11.333,132.898 10.600 C 133.089 9.600,132.910 9.507,131.500 9.876 M266.702 10.600 C 266.853 11.391,267.134 11.600,268.047 11.600 C 269.491 11.600,269.690 10.225,268.300 9.852 C 266.753 9.438,266.502 9.555,266.702 10.600 M125.436 11.941 C 124.940 12.744,125.690 13.645,126.751 13.522 C 128.232 13.350,128.222 11.849,126.738 11.677 C 126.154 11.609,125.568 11.728,125.436 11.941 M271.672 12.500 C 271.809 13.461,273.745 14.015,274.462 13.298 C 275.207 12.553,274.347 11.600,272.929 11.600 C 271.722 11.600,271.561 11.715,271.672 12.500 M122.000 13.667 C 122.000 13.814,121.891 14.219,121.757 14.567 C 121.576 15.040,121.767 15.200,122.511 15.200 C 123.243 15.200,123.555 14.947,123.689 14.246 C 123.841 13.451,123.716 13.302,122.936 13.346 C 122.421 13.376,122.000 13.520,122.000 13.667 M276.305 14.215 C 276.453 14.988,276.711 15.212,277.351 15.121 C 278.628 14.939,278.471 13.504,277.154 13.327 C 276.222 13.202,276.130 13.299,276.305 14.215 M116.678 15.455 C 115.922 16.211,116.481 16.800,117.953 16.800 C 120.171 16.800,120.600 15.392,118.421 15.263 C 117.616 15.216,116.831 15.302,116.678 15.455 M280.528 15.924 C 279.889 16.560,279.927 16.608,281.162 16.728 C 282.785 16.886,283.719 16.558,283.502 15.906 C 283.251 15.152,281.294 15.164,280.528 15.924 M113.084 17.050 C 112.306 17.827,112.831 18.800,114.028 18.800 C 115.072 18.800,115.237 18.666,115.128 17.900 C 115.002 17.011,113.674 16.459,113.084 17.050 M285.012 17.122 C 284.329 17.804,284.876 18.800,285.933 18.800 C 286.861 18.800,287.054 18.637,287.000 17.900 C 286.938 17.058,285.599 16.534,285.012 17.122 M109.340 19.412 C 109.055 20.155,109.857 20.859,110.800 20.694 C 111.130 20.636,111.400 20.232,111.400 19.795 C 111.400 18.767,109.708 18.453,109.340 19.412 M288.400 19.576 C 288.400 20.556,288.827 20.823,289.931 20.534 C 290.944 20.269,291.083 19.394,290.167 19.043 C 289.019 18.602,288.400 18.789,288.400 19.576 M106.000 21.487 C 106.000 22.194,106.225 22.400,107.000 22.400 C 107.799 22.400,108.000 22.200,108.000 21.404 C 108.000 20.587,107.821 20.424,107.000 20.492 C 106.250 20.554,106.000 20.802,106.000 21.487 M292.267 20.667 C 291.595 21.338,292.030 22.400,292.976 22.400 C 294.106 22.400,294.505 21.939,294.159 21.036 C 293.913 20.396,292.762 20.171,292.267 20.667 M102.400 23.287 C 102.400 23.781,102.707 24.000,103.400 24.000 C 104.131 24.000,104.400 23.786,104.400 23.204 C 104.400 22.601,104.159 22.429,103.400 22.492 C 102.738 22.546,102.400 22.816,102.400 23.287 M295.600 23.200 C 295.600 23.787,295.867 24.000,296.600 24.000 C 297.333 24.000,297.600 23.787,297.600 23.200 C 297.600 22.613,297.333 22.400,296.600 22.400 C 295.867 22.400,295.600 22.613,295.600 23.200 M99.300 24.265 C 99.025 24.376,98.800 24.691,98.800 24.966 C 98.800 25.240,98.380 25.690,97.867 25.964 C 97.353 26.239,96.933 26.719,96.933 27.032 C 96.933 27.360,97.327 27.600,97.867 27.600 C 98.533 27.600,98.800 27.371,98.800 26.800 C 98.800 26.178,99.067 26.000,100.000 26.000 C 101.013 26.000,101.200 25.844,101.200 25.000 C 101.200 24.013,100.549 23.761,99.300 24.265 M299.486 25.192 C 299.260 26.057,299.489 26.185,300.319 25.659 C 300.738 25.393,300.728 25.239,300.268 24.856 C 299.810 24.477,299.656 24.543,299.486 25.192 M301.200 26.600 C 301.200 27.323,301.415 27.600,301.976 27.600 C 303.056 27.600,303.326 26.983,302.575 26.232 C 301.668 25.326,301.200 25.451,301.200 26.600 M93.345 28.199 C 93.207 28.559,93.279 29.039,93.504 29.264 C 94.156 29.916,95.400 29.477,95.400 28.595 C 95.400 27.577,93.709 27.251,93.345 28.199 M304.800 28.600 C 304.800 29.400,305.000 29.600,305.800 29.600 C 306.951 29.600,307.232 28.252,306.167 27.843 C 305.070 27.422,304.800 27.572,304.800 28.600 M88.155 32.100 C 88.225 33.491,90.000 33.614,90.000 32.228 C 90.000 31.414,89.803 31.200,89.055 31.200 C 88.327 31.200,88.120 31.408,88.155 32.100 M310.000 32.200 C 310.000 33.000,310.200 33.200,311.000 33.200 C 311.800 33.200,312.000 33.000,312.000 32.200 C 312.000 31.400,311.800 31.200,311.000 31.200 C 310.200 31.200,310.000 31.400,310.000 32.200 M82.800 35.828 C 82.800 37.196,84.532 37.081,84.728 35.700 C 84.832 34.967,84.665 34.800,83.828 34.800 C 82.991 34.800,82.800 34.991,82.800 35.828 M315.272 35.684 C 315.352 36.239,315.772 36.658,316.400 36.810 C 317.087 36.977,317.372 37.296,317.312 37.827 C 317.263 38.252,317.323 38.374,317.446 38.098 C 317.568 37.821,317.864 37.716,318.103 37.864 C 318.343 38.012,318.237 37.703,317.869 37.177 C 317.501 36.652,317.200 35.902,317.200 35.511 C 317.200 35.014,316.890 34.800,316.172 34.800 C 315.340 34.800,315.169 34.968,315.272 35.684 M77.600 39.200 C 77.600 39.908,76.979 40.218,75.900 40.047 C 75.735 40.021,75.600 40.283,75.600 40.629 C 75.600 41.425,74.597 42.453,74.183 42.081 C 74.012 41.926,74.001 42.025,74.159 42.300 C 74.318 42.575,74.257 42.800,74.024 42.800 C 73.791 42.800,73.600 43.011,73.600 43.270 C 73.600 43.528,74.017 43.348,74.526 42.870 C 75.035 42.391,75.935 42.000,76.526 42.000 C 77.405 42.000,77.600 41.818,77.600 41.000 C 77.600 40.267,77.813 40.000,78.400 40.000 C 78.933 40.000,79.200 39.733,79.200 39.200 C 79.200 38.667,78.933 38.400,78.400 38.400 C 77.867 38.400,77.600 38.667,77.600 39.200 M320.800 39.200 C 320.800 39.733,321.067 40.000,321.600 40.000 C 322.187 40.000,322.400 40.267,322.400 41.000 C 322.400 41.800,322.600 42.000,323.400 42.000 C 324.133 42.000,324.400 42.213,324.400 42.800 C 324.400 43.387,324.667 43.600,325.400 43.600 C 326.022 43.600,326.400 43.373,326.400 43.000 C 326.400 42.670,326.207 42.400,325.971 42.400 C 325.334 42.400,324.400 41.347,324.400 40.629 C 324.400 40.283,324.265 40.021,324.100 40.047 C 323.021 40.218,322.400 39.908,322.400 39.200 C 322.400 38.667,322.133 38.400,321.600 38.400 C 321.067 38.400,320.800 38.667,320.800 39.200 M70.765 44.642 C 70.473 44.995,69.820 45.440,69.316 45.632 C 68.812 45.823,68.400 46.255,68.400 46.590 C 68.400 46.926,68.053 47.200,67.628 47.200 C 67.132 47.200,66.810 47.522,66.728 48.100 C 66.658 48.595,66.375 49.023,66.100 49.050 C 65.825 49.078,65.420 49.123,65.200 49.150 C 64.980 49.178,64.800 49.560,64.800 50.000 C 64.800 50.524,64.533 50.800,64.028 50.800 C 63.532 50.800,63.210 51.122,63.128 51.700 C 63.044 52.291,62.725 52.600,62.200 52.600 C 61.675 52.600,61.356 52.909,61.272 53.500 C 61.192 54.067,60.867 54.400,60.397 54.400 C 59.896 54.400,59.670 54.664,59.710 55.200 C 59.751 55.749,60.057 56.000,60.685 56.000 C 61.333 56.000,61.600 55.767,61.600 55.200 C 61.600 54.676,61.867 54.400,62.372 54.400 C 62.868 54.400,63.190 54.078,63.272 53.500 C 63.354 52.922,63.722 52.554,64.300 52.472 C 64.878 52.390,65.200 52.068,65.200 51.572 C 65.200 51.067,65.476 50.800,66.000 50.800 C 66.524 50.800,66.800 50.533,66.800 50.028 C 66.800 49.532,67.122 49.210,67.700 49.128 C 68.278 49.046,68.646 48.678,68.728 48.100 C 68.810 47.522,69.132 47.200,69.628 47.200 C 70.185 47.200,70.400 46.921,70.400 46.200 C 70.400 45.467,70.613 45.200,71.200 45.200 C 71.644 45.200,72.000 44.933,72.000 44.600 C 72.000 43.817,71.434 43.836,70.765 44.642 M328.000 44.600 C 328.000 44.933,328.356 45.200,328.800 45.200 C 329.387 45.200,329.600 45.467,329.600 46.200 C 329.600 46.921,329.815 47.200,330.372 47.200 C 330.868 47.200,331.190 47.522,331.272 48.100 C 331.468 49.481,333.200 49.596,333.200 48.228 C 333.200 47.467,332.992 47.200,332.400 47.200 C 331.950 47.200,331.600 46.933,331.600 46.590 C 331.600 46.255,331.188 45.823,330.684 45.632 C 330.180 45.440,329.527 44.995,329.235 44.642 C 328.566 43.836,328.000 43.817,328.000 44.600 M333.700 49.065 C 332.737 49.453,333.125 50.800,334.200 50.800 C 334.933 50.800,335.200 51.013,335.200 51.600 C 335.200 52.133,335.467 52.400,336.000 52.400 C 336.587 52.400,336.800 52.667,336.800 53.400 C 336.800 54.114,337.016 54.400,337.557 54.400 C 338.770 54.400,338.932 53.243,337.792 52.724 C 337.246 52.475,336.800 52.043,336.800 51.763 C 336.800 51.483,336.458 51.145,336.040 51.013 C 335.622 50.880,335.168 50.328,335.032 49.786 C 334.783 48.791,334.610 48.698,333.700 49.065 M338.800 55.200 C 338.800 55.725,339.067 56.000,339.575 56.000 C 340.104 56.000,340.331 55.746,340.290 55.200 C 340.254 54.721,339.943 54.400,339.515 54.400 C 339.067 54.400,338.800 54.698,338.800 55.200 M57.493 57.200 C 57.116 57.640,56.946 58.000,57.115 58.000 C 57.284 58.000,57.730 57.640,58.107 57.200 C 58.484 56.760,58.654 56.400,58.485 56.400 C 58.316 56.400,57.870 56.760,57.493 57.200 M56.226 58.758 C 55.958 59.191,57.121 59.696,57.643 59.374 C 57.846 59.248,57.909 58.977,57.783 58.772 C 57.490 58.298,56.516 58.289,56.226 58.758 M342.800 59.013 C 342.800 59.336,343.025 59.555,343.300 59.500 C 343.581 59.444,343.855 59.881,343.927 60.500 C 344.016 61.277,344.280 61.600,344.827 61.600 C 345.324 61.600,345.600 61.876,345.600 62.372 C 345.600 62.868,345.922 63.190,346.500 63.272 C 347.078 63.354,347.446 63.722,347.528 64.300 C 347.715 65.618,349.200 65.529,349.200 64.200 C 349.200 63.467,348.987 63.200,348.400 63.200 C 347.960 63.200,347.578 63.020,347.550 62.800 C 347.523 62.580,347.477 62.175,347.449 61.900 C 347.421 61.625,347.041 61.400,346.604 61.399 C 346.167 61.399,345.750 61.084,345.676 60.699 C 345.602 60.315,345.279 60.000,344.958 60.000 C 344.637 60.000,344.277 59.744,344.157 59.431 C 343.846 58.621,342.800 58.298,342.800 59.013 M54.550 59.919 C 54.875 60.446,54.085 61.393,53.317 61.397 C 52.856 61.399,52.642 61.651,52.718 62.103 C 52.793 62.550,52.466 62.947,51.818 63.193 C 51.258 63.406,50.800 63.851,50.800 64.182 C 50.800 64.514,50.350 64.898,49.800 65.036 C 49.174 65.193,48.800 65.570,48.800 66.043 C 48.800 66.533,48.518 66.800,48.000 66.800 C 47.476 66.800,47.200 67.067,47.200 67.573 C 47.200 67.998,46.840 68.460,46.400 68.600 C 45.960 68.740,45.600 69.202,45.600 69.627 C 45.600 70.133,45.876 70.400,46.400 70.400 C 46.933 70.400,47.200 70.133,47.200 69.600 C 47.200 69.013,47.467 68.800,48.200 68.800 C 49.000 68.800,49.200 68.600,49.200 67.800 C 49.200 67.067,49.413 66.800,50.000 66.800 C 50.524 66.800,50.800 66.533,50.800 66.028 C 50.800 65.532,51.122 65.210,51.700 65.128 C 52.278 65.046,52.646 64.678,52.728 64.100 C 52.810 63.522,53.132 63.200,53.628 63.200 C 54.133 63.200,54.400 62.924,54.400 62.400 C 54.400 61.867,54.667 61.600,55.200 61.600 C 55.787 61.600,56.000 61.333,56.000 60.600 C 56.000 59.857,55.788 59.600,55.176 59.600 C 54.723 59.600,54.442 59.744,54.550 59.919 M349.900 65.107 C 348.933 65.317,348.982 66.800,349.957 66.800 C 350.430 66.800,350.807 67.174,350.964 67.800 C 351.126 68.446,351.496 68.800,352.008 68.800 C 352.533 68.800,352.800 69.069,352.800 69.600 C 352.800 70.187,353.067 70.400,353.800 70.400 C 354.533 70.400,354.800 70.613,354.800 71.200 C 354.800 71.644,355.067 72.000,355.400 72.000 C 356.228 72.000,356.151 71.460,355.200 70.600 C 354.760 70.202,354.400 69.629,354.400 69.328 C 354.400 69.027,353.953 68.610,353.408 68.403 C 352.748 68.152,352.494 67.820,352.650 67.413 C 352.811 66.994,352.643 66.800,352.120 66.800 C 351.696 66.800,351.186 66.388,350.977 65.877 C 350.739 65.294,350.343 65.011,349.900 65.107 M44.480 70.880 C 43.827 71.533,43.877 72.000,44.600 72.000 C 44.933 72.000,45.200 71.644,45.200 71.200 C 45.200 70.268,45.126 70.234,44.480 70.880 M41.600 75.200 C 41.600 75.420,41.210 75.600,40.733 75.600 C 40.257 75.600,39.980 75.714,40.119 75.853 C 40.515 76.248,39.638 77.600,38.986 77.600 C 38.664 77.600,38.400 77.960,38.400 78.400 C 38.400 78.933,38.667 79.200,39.200 79.200 C 39.733 79.200,40.000 78.933,40.000 78.400 C 40.000 77.813,40.267 77.600,41.000 77.600 C 41.876 77.600,42.000 77.427,42.000 76.200 C 42.000 75.430,41.910 74.800,41.800 74.800 C 41.690 74.800,41.600 74.980,41.600 75.200 M358.000 76.455 C 358.000 77.410,358.166 77.600,359.000 77.600 C 359.733 77.600,360.000 77.813,360.000 78.400 C 360.000 78.933,360.267 79.200,360.800 79.200 C 361.333 79.200,361.600 78.933,361.600 78.400 C 361.600 77.960,361.336 77.600,361.014 77.600 C 360.407 77.600,359.473 76.260,359.831 75.902 C 359.942 75.791,359.576 75.612,359.017 75.505 C 358.119 75.334,358.000 75.445,358.000 76.455 M34.800 83.780 C 34.800 84.319,34.575 84.904,34.300 85.080 C 33.040 85.886,32.752 86.698,33.797 86.499 C 34.429 86.378,34.800 86.038,34.800 85.581 C 34.800 85.133,35.144 84.807,35.700 84.728 C 37.081 84.532,37.196 82.800,35.828 82.800 C 35.004 82.800,34.800 82.994,34.800 83.780 M363.600 83.800 C 363.600 84.533,363.813 84.800,364.400 84.800 C 364.933 84.800,365.200 85.067,365.200 85.600 C 365.200 86.129,365.467 86.400,365.987 86.400 C 366.875 86.400,366.715 85.407,365.769 85.043 C 365.456 84.923,365.200 84.369,365.200 83.813 C 365.200 83.067,364.989 82.800,364.400 82.800 C 363.813 82.800,363.600 83.067,363.600 83.800 M134.200 84.708 C 132.880 85.324,130.831 86.362,129.646 87.014 C 128.462 87.666,126.842 88.536,126.046 88.947 C 125.251 89.358,124.510 89.833,124.400 90.002 C 124.290 90.172,123.570 90.602,122.800 90.958 C 122.030 91.314,120.680 92.048,119.800 92.589 C 118.920 93.129,117.660 93.864,117.000 94.221 C 116.340 94.578,114.975 95.349,113.967 95.935 C 112.958 96.521,111.428 97.409,110.567 97.909 C 109.705 98.409,107.806 99.489,106.348 100.309 C 104.889 101.129,103.449 102.006,103.148 102.258 C 102.846 102.510,101.970 103.007,101.200 103.361 C 100.430 103.716,99.080 104.448,98.200 104.989 C 97.320 105.529,96.027 106.245,95.327 106.580 C 94.627 106.914,93.945 107.365,93.811 107.583 C 93.677 107.800,92.809 108.343,91.883 108.790 C 90.958 109.237,89.480 110.033,88.600 110.560 C 87.720 111.087,86.240 111.910,85.311 112.389 C 84.383 112.868,82.976 113.699,82.186 114.236 C 81.395 114.772,80.175 115.485,79.474 115.819 C 78.773 116.154,77.480 116.868,76.600 117.405 C 75.720 117.942,74.615 118.553,74.144 118.764 C 71.280 120.045,68.243 124.145,67.169 128.179 C 66.464 130.830,66.418 133.020,66.409 164.475 C 66.399 200.954,66.491 202.556,68.770 205.453 C 69.227 206.033,69.600 206.668,69.600 206.863 C 69.600 207.559,73.792 211.201,75.084 211.628 C 75.808 211.867,76.400 212.209,76.400 212.388 C 76.400 212.567,77.075 213.008,77.900 213.368 C 78.725 213.727,80.210 214.550,81.200 215.196 C 82.190 215.842,83.563 216.628,84.251 216.944 C 84.939 217.260,85.616 217.703,85.756 217.928 C 85.895 218.154,86.535 218.454,87.177 218.595 C 87.819 218.736,88.568 219.120,88.841 219.449 C 89.113 219.777,89.891 220.312,90.568 220.637 C 91.246 220.962,92.520 221.671,93.400 222.211 C 94.280 222.752,95.573 223.463,96.273 223.791 C 96.973 224.119,97.655 224.565,97.789 224.783 C 97.923 225.000,98.791 225.541,99.717 225.985 C 100.642 226.429,102.030 227.185,102.800 227.664 C 105.358 229.255,107.383 230.374,108.900 231.034 C 109.725 231.393,110.400 231.833,110.400 232.012 C 110.400 232.191,111.029 232.545,111.797 232.799 C 112.565 233.053,113.330 233.472,113.497 233.730 C 113.664 233.989,114.430 234.519,115.200 234.908 C 115.970 235.298,117.320 236.052,118.200 236.583 C 120.698 238.093,122.463 239.100,124.200 240.008 C 125.080 240.468,126.520 241.269,127.400 241.787 C 136.440 247.111,142.123 247.679,148.924 243.938 C 150.066 243.310,151.720 242.426,152.600 241.974 C 153.480 241.521,155.640 240.265,157.400 239.183 C 159.160 238.101,161.320 236.849,162.200 236.402 C 163.080 235.954,164.520 235.149,165.400 234.611 C 166.280 234.074,167.720 233.259,168.600 232.800 C 169.480 232.341,170.920 231.525,171.800 230.986 C 172.680 230.447,173.954 229.745,174.632 229.426 C 175.309 229.107,176.096 228.566,176.381 228.223 C 176.665 227.880,177.163 227.600,177.487 227.600 C 177.811 227.600,178.576 227.244,179.186 226.810 C 179.796 226.375,180.724 225.830,181.248 225.599 C 181.771 225.367,183.640 224.284,185.400 223.193 C 187.160 222.102,189.230 220.917,190.000 220.560 C 190.770 220.202,191.490 219.795,191.600 219.654 C 191.944 219.213,195.890 216.889,196.766 216.611 C 197.225 216.465,197.600 216.198,197.600 216.016 C 197.600 215.835,198.320 215.399,199.200 215.047 C 200.080 214.695,200.800 214.264,200.800 214.091 C 200.800 213.917,201.295 213.549,201.900 213.273 C 203.436 212.571,205.180 211.555,206.662 210.499 C 207.356 210.005,208.062 209.600,208.230 209.600 C 208.399 209.600,208.821 209.350,209.169 209.045 C 209.516 208.740,210.874 207.923,212.186 207.230 C 213.498 206.536,214.848 205.723,215.186 205.424 C 215.524 205.125,216.430 204.590,217.200 204.237 C 217.970 203.883,219.320 203.153,220.200 202.614 C 221.080 202.075,222.520 201.264,223.400 200.811 C 224.280 200.359,225.720 199.547,226.600 199.008 C 227.480 198.469,228.754 197.762,229.432 197.437 C 230.109 197.112,230.896 196.566,231.181 196.223 C 231.465 195.880,231.923 195.600,232.198 195.600 C 232.661 195.600,237.695 192.780,240.000 191.229 C 240.550 190.859,241.585 190.319,242.300 190.029 C 243.015 189.740,243.600 189.372,243.600 189.212 C 243.600 189.052,244.275 188.628,245.100 188.270 C 245.925 187.911,247.500 187.075,248.600 186.411 C 249.700 185.747,250.870 185.098,251.200 184.969 C 251.530 184.841,252.540 184.390,253.444 183.968 C 255.793 182.871,262.702 182.890,265.000 184.000 C 265.880 184.425,266.887 184.779,267.238 184.786 C 267.589 184.794,268.193 185.150,268.579 185.577 C 268.966 186.005,269.786 186.465,270.400 186.600 C 271.014 186.735,271.834 187.195,272.221 187.623 C 272.607 188.050,273.232 188.400,273.608 188.400 C 273.984 188.400,274.745 188.756,275.299 189.192 C 275.853 189.628,276.732 190.178,277.253 190.416 C 277.774 190.654,279.100 191.367,280.200 192.000 C 281.300 192.633,282.626 193.346,283.147 193.584 C 283.668 193.822,284.547 194.372,285.101 194.808 C 285.655 195.244,286.422 195.600,286.805 195.600 C 287.188 195.600,287.735 195.880,288.019 196.223 C 288.304 196.566,289.091 197.107,289.768 197.426 C 290.446 197.746,291.900 198.529,293.000 199.168 C 294.100 199.807,295.540 200.613,296.200 200.958 C 300.518 203.215,303.079 205.746,304.942 209.600 L 306.200 212.200 306.328 232.200 C 306.463 253.319,306.324 255.531,304.679 258.274 C 303.725 259.866,300.685 263.101,299.400 263.893 C 298.960 264.164,297.892 264.856,297.026 265.431 C 296.161 266.005,295.081 266.640,294.626 266.841 C 294.172 267.042,292.900 267.747,291.800 268.407 C 290.700 269.067,289.260 269.882,288.600 270.218 C 287.940 270.555,286.590 271.358,285.600 272.004 C 284.610 272.650,283.125 273.473,282.300 273.832 C 281.475 274.192,280.800 274.620,280.800 274.783 C 280.800 274.945,280.125 275.376,279.300 275.738 C 278.475 276.101,276.360 277.293,274.600 278.388 C 272.840 279.482,270.974 280.566,270.453 280.797 C 269.932 281.027,269.053 281.572,268.499 282.008 C 267.945 282.444,267.111 282.801,266.646 282.803 C 266.181 282.804,265.260 283.163,264.600 283.600 C 262.902 284.724,256.406 284.749,253.911 283.640 C 250.353 282.060,248.247 281.038,247.200 280.383 C 246.595 280.005,244.928 279.037,241.720 277.200 C 240.760 276.650,238.765 275.570,237.287 274.800 C 235.809 274.030,234.504 273.272,234.386 273.116 C 234.268 272.959,233.548 272.542,232.786 272.189 C 232.024 271.836,230.680 271.129,229.800 270.618 C 225.731 268.253,224.503 267.562,223.200 266.906 C 222.430 266.517,221.710 266.090,221.600 265.956 C 221.490 265.822,220.836 265.423,220.148 265.070 C 217.442 263.684,213.811 259.221,213.332 256.691 C 213.197 255.981,212.888 255.040,212.644 254.600 C 212.360 254.089,212.128 249.469,212.000 241.800 L 211.800 229.800 210.867 229.668 C 210.354 229.595,209.634 229.798,209.267 230.120 C 208.900 230.441,208.060 231.002,207.400 231.368 C 206.740 231.733,205.480 232.468,204.600 233.002 C 203.720 233.535,202.427 234.245,201.727 234.580 C 201.027 234.914,200.340 235.373,200.200 235.600 C 200.060 235.827,199.373 236.289,198.673 236.628 C 197.095 237.390,194.798 238.650,194.000 239.190 C 193.670 239.413,191.960 240.452,190.200 241.498 L 187.000 243.400 187.000 257.258 C 187.000 269.648,187.071 271.195,187.669 271.858 C 188.037 272.266,188.455 273.069,188.598 273.643 C 189.054 275.473,193.378 279.522,196.446 280.994 C 198.377 281.920,200.295 283.015,200.977 283.581 C 201.299 283.849,202.157 284.380,202.882 284.762 C 206.607 286.725,209.865 288.549,210.400 288.971 C 210.730 289.232,211.450 289.669,212.000 289.942 C 212.550 290.215,213.652 290.835,214.448 291.319 C 215.962 292.240,221.938 295.690,224.128 296.907 C 224.828 297.296,226.300 298.152,227.400 298.809 C 228.500 299.465,229.895 300.200,230.500 300.441 C 231.105 300.681,231.600 301.021,231.600 301.196 C 231.600 301.370,232.275 301.809,233.100 302.171 C 233.925 302.533,236.220 303.795,238.200 304.976 C 240.180 306.156,242.880 307.701,244.200 308.409 C 245.520 309.116,246.870 309.922,247.200 310.200 C 247.530 310.478,248.184 310.822,248.652 310.965 C 249.121 311.107,249.914 311.578,250.414 312.012 C 250.913 312.445,251.610 312.801,251.961 312.801 C 252.313 312.802,253.230 313.200,254.000 313.686 C 255.229 314.462,255.961 314.571,260.000 314.585 C 265.533 314.603,265.023 314.810,277.800 307.359 C 278.680 306.845,279.940 306.137,280.600 305.785 C 281.260 305.433,282.520 304.713,283.400 304.185 C 284.280 303.658,285.765 302.840,286.700 302.369 C 287.635 301.898,288.400 301.371,288.400 301.199 C 288.400 301.027,288.895 300.763,289.500 300.612 C 290.105 300.461,290.903 300.065,291.272 299.732 C 292.067 299.016,294.013 297.897,296.100 296.955 C 296.925 296.583,297.600 296.145,297.600 295.983 C 297.600 295.820,298.275 295.392,299.100 295.032 C 299.925 294.673,301.410 293.846,302.400 293.196 C 303.390 292.545,304.470 291.892,304.800 291.745 C 305.433 291.461,312.203 287.618,314.719 286.114 C 315.533 285.627,316.740 284.949,317.400 284.608 C 318.060 284.267,319.500 283.456,320.600 282.805 C 321.700 282.154,323.140 281.360,323.800 281.040 C 327.896 279.054,331.893 273.818,332.923 269.089 C 334.018 264.055,333.945 201.096,332.838 196.461 C 331.836 192.266,328.763 188.172,325.400 186.550 C 324.740 186.232,323.536 185.573,322.724 185.086 C 320.614 183.820,313.512 179.798,312.800 179.467 C 312.470 179.313,311.390 178.655,310.400 178.004 C 309.410 177.354,307.925 176.527,307.100 176.168 C 306.275 175.808,305.600 175.380,305.600 175.217 C 305.600 175.055,304.925 174.620,304.100 174.252 C 303.275 173.884,301.941 173.182,301.136 172.691 C 298.293 170.961,295.119 169.149,294.265 168.769 C 293.789 168.557,292.590 167.854,291.600 167.207 C 290.610 166.560,289.260 165.759,288.600 165.429 C 287.940 165.098,286.680 164.370,285.800 163.810 C 284.920 163.249,283.480 162.418,282.600 161.962 C 281.720 161.506,280.280 160.701,279.400 160.174 C 278.520 159.647,277.350 158.997,276.800 158.731 C 276.250 158.464,275.507 158.002,275.149 157.705 C 272.014 155.103,263.322 151.600,260.000 151.600 C 257.101 151.600,249.376 154.344,248.560 155.664 C 248.442 155.855,247.773 156.286,247.073 156.620 C 246.373 156.955,245.080 157.665,244.200 158.199 C 241.594 159.781,239.564 160.964,238.448 161.552 C 237.871 161.855,237.040 162.406,236.600 162.775 C 236.160 163.145,235.350 163.658,234.800 163.915 C 234.250 164.172,233.080 164.840,232.200 165.399 C 231.320 165.958,229.925 166.710,229.100 167.069 C 228.275 167.428,227.600 167.876,227.600 168.064 C 227.600 168.252,226.880 168.695,226.000 169.047 C 225.120 169.399,224.400 169.820,224.400 169.983 C 224.400 170.145,223.725 170.574,222.900 170.935 C 222.075 171.296,220.590 172.132,219.600 172.792 C 218.610 173.453,217.305 174.193,216.700 174.436 C 216.095 174.679,215.600 175.021,215.600 175.196 C 215.600 175.370,214.925 175.813,214.100 176.180 C 213.275 176.547,211.880 177.284,211.000 177.818 C 210.120 178.352,208.680 179.149,207.800 179.589 C 206.920 180.030,205.930 180.558,205.600 180.765 C 204.896 181.204,199.790 184.042,195.800 186.212 C 194.260 187.050,192.280 188.155,191.400 188.667 C 190.520 189.180,189.170 189.890,188.400 190.245 C 187.630 190.600,186.910 191.018,186.800 191.174 C 186.690 191.330,185.250 192.218,183.600 193.148 C 181.950 194.078,179.970 195.220,179.200 195.686 C 178.430 196.153,177.080 196.949,176.200 197.455 C 174.138 198.642,172.202 199.786,170.200 201.001 C 169.320 201.535,168.027 202.245,167.327 202.580 C 166.627 202.914,165.940 203.373,165.800 203.600 C 165.660 203.827,164.973 204.289,164.273 204.628 C 162.138 205.660,160.379 206.695,159.672 207.335 C 159.301 207.670,158.549 208.141,157.999 208.382 C 157.450 208.622,156.280 209.258,155.400 209.795 C 154.520 210.332,153.227 211.045,152.527 211.380 C 151.827 211.714,151.154 212.151,151.031 212.351 C 149.926 214.139,145.362 215.400,140.000 215.400 L 134.600 215.400 131.800 213.849 C 130.260 212.996,128.460 212.020,127.800 211.680 C 127.140 211.341,126.504 210.921,126.386 210.747 C 126.268 210.573,125.548 210.147,124.786 209.801 C 124.024 209.454,122.590 208.644,121.600 208.000 C 120.610 207.356,119.260 206.555,118.600 206.218 C 117.940 205.882,116.500 205.067,115.400 204.407 C 114.300 203.747,112.954 203.014,112.408 202.778 C 111.863 202.543,111.323 202.213,111.208 202.046 C 111.094 201.879,109.650 200.985,108.000 200.058 C 97.631 194.236,95.484 192.151,93.666 186.138 C 92.324 181.702,92.323 145.977,93.664 141.978 C 94.928 138.210,97.591 134.911,100.793 133.146 C 101.567 132.719,102.920 131.937,103.800 131.409 C 104.680 130.880,106.075 130.147,106.900 129.780 C 107.725 129.413,108.400 128.980,108.400 128.817 C 108.400 128.655,109.075 128.234,109.900 127.882 C 111.931 127.016,117.202 124.118,117.975 123.442 C 118.319 123.141,119.047 122.758,119.592 122.591 C 120.138 122.424,121.038 121.991,121.592 121.628 C 123.387 120.453,124.171 119.995,125.800 119.170 C 126.680 118.725,128.300 117.824,129.400 117.167 C 130.500 116.511,131.670 115.876,132.000 115.756 C 132.330 115.636,133.477 115.150,134.548 114.678 C 138.261 113.040,145.028 113.688,148.800 116.042 C 149.130 116.249,150.030 116.736,150.800 117.125 C 151.570 117.514,152.830 118.234,153.600 118.724 C 154.370 119.215,155.900 120.076,157.000 120.637 C 158.100 121.199,159.720 122.093,160.600 122.623 C 161.480 123.154,162.920 123.962,163.800 124.419 C 166.912 126.033,168.205 126.762,168.659 127.156 C 168.912 127.376,169.722 127.835,170.459 128.178 C 171.197 128.520,172.520 129.219,173.400 129.732 C 174.280 130.245,175.663 131.045,176.474 131.511 C 181.336 134.303,184.043 136.754,185.077 139.300 C 185.413 140.125,185.825 140.800,185.993 140.800 C 186.687 140.800,186.934 144.021,187.161 156.000 C 187.395 168.361,187.415 168.598,188.214 168.520 C 189.089 168.434,192.082 166.803,195.377 164.617 C 196.026 164.186,197.197 163.491,197.979 163.072 C 200.006 161.987,201.151 161.311,203.200 159.990 C 204.190 159.352,205.540 158.547,206.200 158.201 C 206.860 157.855,208.120 157.132,209.000 156.594 C 209.880 156.057,211.176 155.314,211.879 154.944 C 213.612 154.033,213.752 152.645,213.501 138.859 L 213.300 127.800 212.033 125.329 C 210.696 122.721,208.204 119.837,206.200 118.578 C 204.731 117.655,202.992 116.651,201.400 115.807 C 200.740 115.456,199.390 114.642,198.400 113.996 C 197.410 113.350,195.925 112.527,195.100 112.168 C 194.275 111.808,193.600 111.380,193.600 111.217 C 193.600 111.055,192.925 110.617,192.100 110.245 C 190.209 109.392,188.190 108.256,187.400 107.600 C 186.638 106.968,184.661 105.868,182.700 104.987 C 181.875 104.617,181.200 104.180,181.200 104.017 C 181.200 103.855,180.525 103.428,179.700 103.069 C 178.875 102.710,177.480 101.956,176.600 101.394 C 175.720 100.832,174.427 100.111,173.727 99.792 C 173.027 99.473,172.340 99.027,172.200 98.800 C 172.060 98.573,171.373 98.119,170.673 97.791 C 169.973 97.463,168.680 96.758,167.800 96.225 C 166.052 95.166,164.244 94.145,161.852 92.865 C 161.001 92.410,160.011 91.773,159.652 91.450 C 159.294 91.127,158.505 90.739,157.900 90.588 C 157.295 90.437,156.800 90.144,156.800 89.936 C 156.800 89.729,156.125 89.278,155.300 88.935 C 154.475 88.591,153.710 88.181,153.600 88.024 C 153.490 87.866,152.770 87.413,152.000 87.017 C 151.230 86.622,149.520 85.740,148.200 85.059 C 144.612 83.207,137.784 83.036,134.200 84.708 M31.200 88.972 C 31.200 89.809,31.391 90.000,32.228 90.000 C 33.065 90.000,33.232 89.833,33.128 89.100 C 32.932 87.719,31.200 87.604,31.200 88.972 M367.200 89.000 C 367.200 89.733,367.413 90.000,368.000 90.000 C 368.587 90.000,368.800 89.733,368.800 89.000 C 368.800 88.267,368.587 88.000,368.000 88.000 C 367.413 88.000,367.200 88.267,367.200 89.000 M27.745 93.800 C 27.391 94.720,27.917 95.675,28.694 95.525 C 29.562 95.358,29.866 94.014,29.139 93.554 C 28.358 93.059,28.005 93.121,27.745 93.800 M370.900 93.467 C 370.395 93.669,370.211 94.878,370.623 95.290 C 371.159 95.825,372.437 95.064,372.321 94.279 C 372.192 93.412,371.717 93.140,370.900 93.467 M26.232 97.425 C 25.326 98.332,25.451 98.800,26.600 98.800 C 27.323 98.800,27.600 98.585,27.600 98.024 C 27.600 96.944,26.983 96.674,26.232 97.425 M372.400 97.800 C 372.400 98.666,372.562 98.833,373.300 98.728 C 373.891 98.644,374.200 98.325,374.200 97.800 C 374.200 97.275,373.891 96.956,373.300 96.872 C 372.562 96.767,372.400 96.934,372.400 97.800 M24.854 99.734 C 24.481 100.184,24.507 100.355,24.977 100.536 C 25.704 100.815,26.060 100.344,25.638 99.662 C 25.397 99.271,25.226 99.287,24.854 99.734 M374.400 99.708 C 374.400 100.042,374.670 100.418,375.000 100.545 C 375.330 100.671,375.600 100.623,375.600 100.436 C 375.600 100.250,375.330 99.874,375.000 99.600 C 374.512 99.195,374.400 99.215,374.400 99.708 M22.400 103.485 C 22.400 104.133,22.633 104.400,23.200 104.400 C 23.781 104.400,24.000 104.133,24.000 103.425 C 24.000 102.696,23.798 102.465,23.200 102.510 C 22.651 102.551,22.400 102.857,22.400 103.485 M376.000 103.400 C 376.000 104.133,376.213 104.400,376.800 104.400 C 377.387 104.400,377.600 104.133,377.600 103.400 C 377.600 102.667,377.387 102.400,376.800 102.400 C 376.213 102.400,376.000 102.667,376.000 103.400 M20.484 106.989 C 20.670 108.291,22.400 108.330,22.400 107.032 C 22.400 106.181,22.229 106.023,21.384 106.093 C 20.612 106.157,20.396 106.372,20.484 106.989 M377.600 106.972 C 377.600 107.809,377.791 108.000,378.628 108.000 C 379.465 108.000,379.632 107.833,379.528 107.100 C 379.332 105.719,377.600 105.604,377.600 106.972 M19.067 109.467 C 18.445 110.088,18.807 111.600,19.576 111.600 C 20.615 111.600,20.931 110.993,20.404 110.008 C 19.959 109.175,19.531 109.002,19.067 109.467 M379.875 109.458 C 379.221 110.112,379.605 111.600,380.427 111.600 C 381.087 111.600,381.228 111.386,381.127 110.531 C 381.000 109.461,380.393 108.941,379.875 109.458 M17.080 113.053 C 16.328 113.806,16.812 115.200,17.827 115.200 C 18.710 115.200,18.835 115.047,18.727 114.103 C 18.606 113.055,17.673 112.460,17.080 113.053 M381.700 113.065 C 380.882 113.395,381.079 115.200,381.933 115.200 C 382.940 115.200,383.116 114.942,382.896 113.791 C 382.703 112.782,382.583 112.709,381.700 113.065 M15.495 116.700 C 14.768 118.132,15.734 120.059,16.836 119.378 C 17.454 118.996,17.249 116.904,16.567 116.643 C 15.760 116.333,15.679 116.337,15.495 116.700 M383.200 117.724 C 383.200 118.734,383.400 119.159,383.942 119.301 C 384.567 119.464,384.677 119.269,384.642 118.053 C 384.583 116.008,383.200 115.692,383.200 117.724 M14.000 121.928 C 12.952 122.403,13.112 123.792,14.223 123.858 C 15.047 123.906,15.200 123.734,15.200 122.758 C 15.200 121.569,15.038 121.458,14.000 121.928 M384.800 122.758 C 384.800 123.728,384.955 123.906,385.758 123.858 C 386.796 123.795,386.894 122.560,385.909 121.936 C 385.038 121.383,384.800 121.560,384.800 122.758 M11.777 126.151 C 11.463 127.401,11.810 128.000,12.849 128.000 C 13.512 128.000,13.629 127.776,13.525 126.703 C 13.366 125.057,12.148 124.672,11.777 126.151 M386.549 126.262 C 386.354 127.039,386.475 127.466,387.000 127.849 C 387.956 128.549,388.475 128.162,388.325 126.862 C 388.113 125.021,386.958 124.631,386.549 126.262 M9.852 131.700 C 9.489 133.054,9.521 133.104,10.600 132.898 C 11.333 132.758,11.600 132.453,11.600 131.753 C 11.600 130.485,10.189 130.442,9.852 131.700 M388.400 131.772 C 388.400 132.609,388.591 132.800,389.428 132.800 C 390.265 132.800,390.432 132.633,390.328 131.900 C 390.132 130.519,388.400 130.404,388.400 131.772 M8.260 135.100 C 7.803 136.748,8.180 138.197,9.100 138.328 C 9.932 138.446,10.000 138.302,10.000 136.428 C 10.000 134.331,8.740 133.369,8.260 135.100 M390.236 136.065 C 389.952 137.843,390.361 138.654,391.350 138.275 C 391.947 138.046,392.082 137.049,391.754 135.300 C 391.469 133.782,390.525 134.258,390.236 136.065 M7.174 140.929 C 6.320 141.573,6.377 144.142,7.250 144.312 C 8.105 144.479,8.361 143.716,8.052 141.921 C 7.838 140.675,7.707 140.528,7.174 140.929 M392.000 142.372 C 392.000 144.104,392.100 144.343,392.800 144.290 C 393.438 144.242,393.600 143.943,393.600 142.811 C 393.600 141.826,393.356 141.240,392.800 140.893 C 392.040 140.419,392.000 140.493,392.000 142.372 M4.680 147.100 C 3.977 148.360,4.454 150.800,5.403 150.800 C 6.333 150.800,6.400 150.665,6.400 148.800 C 6.400 146.915,5.357 145.885,4.680 147.100 M393.600 148.838 C 393.600 151.313,395.376 152.096,395.538 149.692 C 395.669 147.751,395.291 146.843,394.381 146.911 C 393.726 146.961,393.600 147.272,393.600 148.838 M2.843 156.366 C 2.916 158.367,3.054 158.800,3.619 158.800 C 4.994 158.800,4.855 154.337,3.472 154.071 C 2.840 153.949,2.766 154.218,2.843 156.366 M395.600 156.314 C 395.600 158.362,395.692 158.629,396.400 158.629 C 397.108 158.629,397.200 158.362,397.200 156.314 C 397.200 154.267,397.108 154.000,396.400 154.000 C 395.692 154.000,395.600 154.267,395.600 156.314 M1.300 163.065 C 0.202 163.508,0.660 168.400,1.800 168.400 C 2.771 168.400,2.800 168.320,2.800 165.600 C 2.800 162.801,2.637 162.525,1.300 163.065 M397.200 165.600 C 397.200 168.349,397.219 168.400,398.241 168.400 C 399.185 168.400,399.506 165.386,398.827 162.900 C 398.812 162.845,398.440 162.800,398.000 162.800 C 397.276 162.800,397.200 163.067,397.200 165.600 M0.000 178.400 C 0.000 182.789,0.327 184.211,0.957 182.567 C 1.511 181.123,0.997 173.600,0.344 173.600 C 0.155 173.600,0.000 175.760,0.000 178.400 M399.200 179.400 C 399.200 181.933,399.359 183.600,399.600 183.600 C 399.841 183.600,400.000 181.933,400.000 179.400 C 400.000 176.867,399.841 175.200,399.600 175.200 C 399.359 175.200,399.200 176.867,399.200 179.400 M0.000 221.567 C 0.000 226.726,0.564 228.045,0.998 223.900 C 1.356 220.482,1.116 217.101,0.500 216.898 C 0.118 216.772,0.000 217.879,0.000 221.567 M399.200 221.600 C 399.200 224.533,399.356 226.400,399.600 226.400 C 399.844 226.400,400.000 224.533,400.000 221.600 C 400.000 218.667,399.844 216.800,399.600 216.800 C 399.356 216.800,399.200 218.667,399.200 221.600 M0.951 234.300 C 0.996 236.778,1.074 237.011,1.900 237.128 C 2.761 237.250,2.800 237.132,2.800 234.428 C 2.800 231.719,2.760 231.600,1.851 231.600 C 0.942 231.600,0.904 231.712,0.951 234.300 M397.200 234.428 C 397.200 237.132,397.239 237.250,398.100 237.128 C 399.513 236.927,399.539 231.600,398.127 231.600 C 397.245 231.600,397.200 231.738,397.200 234.428 M2.800 243.800 C 2.800 246.678,4.146 247.110,4.516 244.351 C 4.789 242.317,4.539 241.600,3.557 241.600 C 2.906 241.600,2.800 241.908,2.800 243.800 M395.600 243.800 C 395.600 245.665,395.711 246.000,396.332 246.000 C 396.941 246.000,397.078 245.632,397.152 243.800 C 397.232 241.819,397.159 241.600,396.421 241.600 C 395.693 241.600,395.600 241.848,395.600 243.800 M4.481 251.100 C 4.668 254.087,6.400 254.203,6.400 251.228 C 6.400 249.322,6.339 249.200,5.381 249.200 C 4.416 249.200,4.369 249.300,4.481 251.100 M393.600 251.228 C 393.600 253.102,393.668 253.246,394.500 253.128 C 395.970 252.919,396.082 249.200,394.619 249.200 C 393.661 249.200,393.600 249.322,393.600 251.228 M6.475 257.300 C 6.617 258.773,7.656 259.111,8.033 257.806 C 8.365 256.657,8.037 256.000,7.132 256.000 C 6.490 256.000,6.372 256.234,6.475 257.300 M392.000 257.365 C 392.000 259.225,393.340 259.137,393.525 257.264 C 393.630 256.213,393.511 256.000,392.825 256.000 C 392.153 256.000,392.000 256.253,392.000 257.365 M8.221 262.100 C 7.960 262.947,8.115 263.976,8.469 263.757 C 8.654 263.643,8.919 263.846,9.058 264.208 C 9.407 265.117,9.986 264.184,9.994 262.700 C 10.000 261.540,8.545 261.048,8.221 262.100 M390.208 261.988 C 390.061 262.225,390.071 263.000,390.230 263.710 C 390.390 264.419,390.598 264.775,390.693 264.500 C 390.789 264.225,391.095 264.000,391.374 264.000 C 392.151 264.000,391.930 261.835,391.137 261.683 C 390.773 261.613,390.354 261.750,390.208 261.988 M9.605 266.955 C 9.621 268.219,10.163 269.200,10.847 269.200 C 12.105 269.200,11.882 266.947,10.600 266.702 C 10.017 266.591,9.602 266.696,9.605 266.955 M388.400 268.053 C 388.400 269.071,388.538 269.236,389.300 269.128 C 390.118 269.012,390.266 268.647,390.050 267.285 C 389.885 266.249,388.400 266.940,388.400 268.053 M11.802 271.997 C 11.421 272.613,11.776 274.382,12.323 274.592 C 13.172 274.918,13.600 274.460,13.600 273.223 C 13.600 272.118,12.282 271.220,11.802 271.997 M387.257 272.028 C 386.474 272.342,386.361 272.591,386.590 273.502 C 386.932 274.865,386.942 274.874,387.743 274.567 C 388.265 274.366,388.809 271.496,388.300 271.625 C 388.245 271.639,387.776 271.821,387.257 272.028 M13.325 277.154 C 13.519 278.616,15.200 278.903,15.200 277.474 C 15.200 276.744,14.943 276.444,14.194 276.301 C 13.302 276.130,13.203 276.228,13.325 277.154 M384.800 277.428 C 384.800 278.785,386.453 278.671,386.660 277.300 C 386.769 276.571,386.605 276.400,385.797 276.400 C 384.993 276.400,384.800 276.599,384.800 277.428 M15.433 280.900 C 15.138 282.359,15.297 283.200,15.867 283.200 C 16.160 283.200,16.518 283.245,16.662 283.300 C 17.034 283.442,17.203 281.966,16.938 280.900 C 16.814 280.405,16.466 280.000,16.164 280.000 C 15.862 280.000,15.533 280.405,15.433 280.900 M383.900 280.676 C 383.402 280.806,383.200 281.262,383.200 282.259 C 383.200 284.345,384.583 283.995,384.641 281.894 C 384.664 281.072,384.664 280.421,384.641 280.446 C 384.619 280.472,384.285 280.575,383.900 280.676 M16.873 285.900 C 17.069 287.604,18.800 287.719,18.800 286.028 C 18.800 284.976,18.653 284.800,17.773 284.800 C 16.890 284.800,16.764 284.953,16.873 285.900 M381.200 286.028 C 381.200 287.072,381.334 287.237,382.100 287.128 C 383.515 286.927,383.630 284.800,382.227 284.800 C 381.347 284.800,381.200 284.976,381.200 286.028 M18.800 289.357 C 18.800 290.606,19.858 291.013,20.412 289.977 C 20.932 289.006,20.611 288.400,19.576 288.400 C 19.024 288.400,18.800 288.676,18.800 289.357 M379.673 289.500 C 379.749 290.155,380.043 290.600,380.400 290.600 C 380.757 290.600,381.051 290.155,381.127 289.500 C 381.230 288.604,381.095 288.400,380.400 288.400 C 379.705 288.400,379.570 288.604,379.673 289.500 M20.667 292.267 C 20.172 292.761,20.395 293.913,21.033 294.157 C 22.159 294.590,22.400 294.421,22.400 293.200 C 22.400 292.041,21.420 291.513,20.667 292.267 M377.600 293.172 C 377.600 294.413,378.107 294.700,379.139 294.046 C 379.948 293.533,379.519 292.218,378.496 292.072 C 377.735 291.964,377.600 292.129,377.600 293.172 M22.667 295.867 C 22.070 296.463,22.420 297.600,23.200 297.600 C 23.787 297.600,24.000 297.333,24.000 296.600 C 24.000 295.659,23.274 295.259,22.667 295.867 M376.000 296.600 C 376.000 297.333,376.213 297.600,376.800 297.600 C 377.387 297.600,377.600 297.333,377.600 296.600 C 377.600 295.867,377.387 295.600,376.800 295.600 C 376.213 295.600,376.000 295.867,376.000 296.600 M25.606 301.355 C 25.615 302.023,26.117 302.628,26.900 302.917 C 27.441 303.116,27.600 302.962,27.600 302.234 C 27.600 301.548,27.329 301.241,26.600 301.102 C 26.017 300.991,25.603 301.096,25.606 301.355 M372.400 302.228 C 372.400 303.585,374.053 303.471,374.260 302.100 C 374.369 301.371,374.205 301.200,373.397 301.200 C 372.593 301.200,372.400 301.399,372.400 302.228 M27.600 305.167 C 27.600 306.079,28.149 306.800,28.843 306.800 C 29.384 306.800,29.600 306.514,29.600 305.800 C 29.600 305.000,29.400 304.800,28.600 304.800 C 28.050 304.800,27.600 304.965,27.600 305.167 M370.400 305.576 C 370.400 306.597,371.089 306.990,371.818 306.385 C 372.733 305.626,372.515 304.800,371.400 304.800 C 370.677 304.800,370.400 305.015,370.400 305.576 M31.206 310.500 C 31.217 311.416,31.912 312.120,32.560 311.871 C 33.641 311.456,33.361 310.000,32.200 310.000 C 31.650 310.000,31.203 310.225,31.206 310.500 M367.200 311.000 C 367.200 311.733,367.413 312.000,368.000 312.000 C 368.587 312.000,368.800 311.733,368.800 311.000 C 368.800 310.267,368.587 310.000,368.000 310.000 C 367.413 310.000,367.200 310.267,367.200 311.000 M33.297 313.955 C 33.573 314.310,34.025 314.744,34.300 314.920 C 34.575 315.096,34.800 315.681,34.800 316.220 C 34.800 317.006,35.004 317.200,35.828 317.200 C 37.196 317.200,37.081 315.468,35.700 315.272 C 35.144 315.193,34.800 314.867,34.800 314.419 C 34.800 313.962,34.429 313.622,33.797 313.501 C 32.922 313.334,32.858 313.392,33.297 313.955 M365.200 314.400 C 365.200 314.933,364.933 315.200,364.400 315.200 C 363.813 315.200,363.600 315.467,363.600 316.200 C 363.600 316.933,363.813 317.200,364.400 317.200 C 364.989 317.200,365.200 316.933,365.200 316.187 C 365.200 315.631,365.456 315.077,365.769 314.957 C 366.715 314.593,366.875 313.600,365.987 313.600 C 365.467 313.600,365.200 313.871,365.200 314.400 M38.400 321.600 C 38.400 322.040,38.664 322.400,38.986 322.400 C 39.638 322.400,40.515 323.752,40.119 324.147 C 39.980 324.286,40.242 324.400,40.700 324.400 C 41.158 324.400,41.624 324.625,41.735 324.900 C 41.846 325.175,41.951 324.725,41.968 323.900 C 41.997 322.558,41.895 322.400,41.000 322.400 C 40.267 322.400,40.000 322.187,40.000 321.600 C 40.000 321.067,39.733 320.800,39.200 320.800 C 38.667 320.800,38.400 321.067,38.400 321.600 M360.000 321.600 C 360.000 322.187,359.733 322.400,359.000 322.400 C 358.200 322.400,358.000 322.600,358.000 323.400 C 358.000 324.133,357.787 324.400,357.200 324.400 C 356.629 324.400,356.400 324.667,356.400 325.333 C 356.400 326.493,358.071 326.563,358.240 325.409 C 358.358 324.605,359.182 323.942,359.681 324.250 C 359.856 324.358,360.000 323.987,360.000 323.424 C 360.000 322.667,360.208 322.400,360.800 322.400 C 361.333 322.400,361.600 322.133,361.600 321.600 C 361.600 321.067,361.333 320.800,360.800 320.800 C 360.267 320.800,360.000 321.067,360.000 321.600 M44.243 328.569 C 44.364 328.882,44.718 329.236,45.031 329.357 C 45.344 329.477,45.600 329.928,45.600 330.360 C 45.600 330.795,45.958 331.260,46.400 331.400 C 46.840 331.540,47.200 331.989,47.200 332.399 C 47.200 332.867,47.534 333.192,48.100 333.272 C 48.691 333.356,49.000 333.675,49.000 334.200 C 49.000 334.714,49.307 335.044,49.859 335.122 C 50.332 335.190,50.810 335.595,50.922 336.022 C 51.034 336.450,51.412 336.800,51.763 336.800 C 52.113 336.800,52.423 336.980,52.450 337.200 C 52.477 337.420,52.523 337.825,52.551 338.100 C 52.579 338.375,52.944 338.601,53.361 338.602 C 53.779 338.603,54.241 338.948,54.389 339.368 C 54.753 340.406,56.000 340.558,56.000 339.565 C 56.000 339.067,55.721 338.800,55.200 338.800 C 54.613 338.800,54.400 338.533,54.400 337.800 C 54.400 337.086,54.184 336.800,53.643 336.800 C 53.170 336.800,52.793 336.426,52.636 335.800 C 52.474 335.154,52.104 334.800,51.592 334.800 C 51.067 334.800,50.800 334.531,50.800 334.000 C 50.800 333.476,50.533 333.200,50.028 333.200 C 49.532 333.200,49.210 332.878,49.128 332.300 C 49.058 331.805,48.775 331.378,48.500 331.350 C 48.225 331.322,47.820 331.278,47.600 331.250 C 47.380 331.223,47.200 330.840,47.200 330.400 C 47.200 329.855,46.933 329.600,46.363 329.600 C 45.862 329.600,45.441 329.279,45.316 328.800 C 45.201 328.360,44.863 328.000,44.566 328.000 C 44.263 328.000,44.121 328.250,44.243 328.569 M354.800 328.600 C 354.800 328.930,354.961 329.200,355.157 329.200 C 355.354 329.200,355.618 328.930,355.745 328.600 C 355.885 328.235,355.745 328.000,355.387 328.000 C 355.064 328.000,354.800 328.270,354.800 328.600 M352.800 330.437 C 352.800 330.925,352.481 331.358,352.037 331.474 C 351.617 331.584,351.184 332.017,351.074 332.437 C 350.958 332.881,350.525 333.200,350.037 333.200 C 349.467 333.200,349.200 333.455,349.200 334.000 C 349.200 334.524,348.933 334.800,348.428 334.800 C 347.932 334.800,347.610 335.122,347.528 335.700 C 347.446 336.278,347.078 336.646,346.500 336.728 C 345.849 336.820,345.600 337.124,345.600 337.828 C 345.600 338.533,345.381 338.800,344.800 338.800 C 344.280 338.800,344.000 339.067,344.000 339.563 C 344.000 340.575,345.446 340.231,345.729 339.152 C 345.840 338.726,346.082 338.404,346.266 338.436 C 347.159 338.593,347.600 338.332,347.600 337.647 C 347.600 337.230,347.957 336.800,348.400 336.684 C 348.840 336.569,349.200 336.188,349.200 335.837 C 349.200 335.487,349.380 335.178,349.600 335.150 C 349.820 335.123,350.225 335.078,350.500 335.050 C 350.775 335.023,351.058 334.595,351.128 334.100 C 351.210 333.522,351.532 333.200,352.028 333.200 C 352.517 333.200,352.800 332.924,352.800 332.447 C 352.800 332.032,353.133 331.606,353.539 331.500 C 354.753 331.183,354.939 329.600,353.763 329.600 C 353.052 329.600,352.800 329.820,352.800 330.437 M342.400 341.576 C 342.400 342.134,343.135 342.487,343.643 342.174 C 343.951 341.983,343.921 341.796,343.543 341.556 C 342.829 341.104,342.400 341.111,342.400 341.576 M340.400 342.987 C 340.400 343.345,340.635 343.485,341.000 343.345 C 341.330 343.218,341.600 343.324,341.600 343.581 C 341.600 343.837,341.789 343.931,342.019 343.788 C 342.306 343.611,342.291 343.350,341.970 342.964 C 341.358 342.226,340.400 342.240,340.400 342.987 M59.849 344.615 C 59.696 345.017,59.923 345.345,60.505 345.560 C 60.995 345.742,61.397 346.230,61.398 346.645 C 61.399 347.118,61.729 347.447,62.281 347.525 C 62.766 347.594,63.269 347.988,63.400 348.400 C 63.531 348.812,63.944 349.208,64.318 349.280 C 64.692 349.352,64.999 349.768,64.999 350.205 C 65.000 350.725,65.312 351.044,65.900 351.128 C 66.491 351.212,66.800 351.531,66.800 352.056 C 66.800 352.656,67.024 352.824,67.700 352.728 C 68.291 352.644,68.600 352.325,68.600 351.800 C 68.600 351.275,68.291 350.956,67.700 350.872 C 67.122 350.790,66.800 350.468,66.800 349.972 C 66.800 349.467,66.524 349.200,66.000 349.200 C 65.467 349.200,65.200 348.933,65.200 348.400 C 65.200 347.813,64.933 347.600,64.200 347.600 C 63.400 347.600,63.200 347.400,63.200 346.600 C 63.200 345.867,62.987 345.600,62.400 345.600 C 61.867 345.600,61.600 345.333,61.600 344.800 C 61.600 343.837,60.205 343.690,59.849 344.615 M338.800 344.800 C 338.800 345.387,338.533 345.600,337.800 345.600 C 337.052 345.600,336.800 345.811,336.800 346.437 C 336.800 346.934,336.480 347.359,336.013 347.481 C 335.581 347.594,335.118 348.027,334.986 348.443 C 334.854 348.859,334.398 349.200,333.973 349.200 C 333.467 349.200,333.200 349.476,333.200 350.000 C 333.200 350.518,332.933 350.800,332.443 350.800 C 331.970 350.800,331.593 351.174,331.436 351.800 C 331.274 352.446,330.904 352.800,330.392 352.800 C 329.867 352.800,329.600 353.069,329.600 353.600 C 329.600 354.124,329.867 354.400,330.373 354.400 C 330.798 354.400,331.260 354.040,331.400 353.600 C 331.540 353.160,332.002 352.800,332.427 352.800 C 332.917 352.800,333.200 352.525,333.200 352.047 C 333.200 351.621,333.561 351.199,334.030 351.076 C 334.486 350.957,334.957 350.486,335.076 350.030 C 335.199 349.561,335.621 349.200,336.047 349.200 C 336.524 349.200,336.800 348.917,336.800 348.428 C 336.800 347.932,337.122 347.610,337.700 347.528 C 338.303 347.442,338.561 347.168,338.482 346.697 C 338.407 346.250,338.734 345.853,339.382 345.607 C 340.592 345.147,340.748 344.000,339.600 344.000 C 339.067 344.000,338.800 344.267,338.800 344.800 M68.475 353.500 C 68.677 354.561,70.400 354.676,70.400 353.628 C 70.400 353.005,70.145 352.800,69.371 352.800 C 68.606 352.800,68.376 352.980,68.475 353.500 M328.000 355.400 C 328.000 355.730,328.158 356.000,328.351 356.000 C 328.544 356.000,328.926 355.730,329.200 355.400 C 329.616 354.899,329.558 354.800,328.849 354.800 C 328.361 354.800,328.000 355.055,328.000 355.400 M75.100 358.265 C 75.375 358.376,75.600 358.812,75.600 359.233 C 75.600 359.745,75.879 360.000,76.437 360.000 C 76.938 360.000,77.359 360.321,77.484 360.800 C 77.600 361.243,78.030 361.600,78.447 361.600 C 78.933 361.600,79.200 361.317,79.200 360.800 C 79.200 360.267,78.933 360.000,78.400 360.000 C 77.813 360.000,77.600 359.733,77.600 359.000 C 77.600 358.105,77.442 358.003,76.100 358.032 C 75.275 358.049,74.825 358.154,75.100 358.265 M322.400 359.000 C 322.400 359.733,322.187 360.000,321.600 360.000 C 321.067 360.000,320.800 360.267,320.800 360.800 C 320.800 361.317,321.067 361.600,321.553 361.600 C 321.970 361.600,322.400 361.243,322.516 360.800 C 322.631 360.359,323.062 360.000,323.475 360.000 C 323.987 360.000,324.252 359.682,324.308 359.000 C 324.376 358.179,324.213 358.000,323.396 358.000 C 322.600 358.000,322.400 358.201,322.400 359.000 M315.900 363.510 C 315.515 363.592,315.200 364.005,315.200 364.429 C 315.200 365.622,317.054 365.478,317.285 364.267 C 317.462 363.340,317.248 363.223,315.900 363.510 M82.800 364.428 C 82.800 365.057,83.015 365.225,83.696 365.128 C 85.025 364.938,85.142 363.600,83.829 363.600 C 83.055 363.600,82.800 363.805,82.800 364.428 M88.349 366.900 C 87.872 367.834,88.231 368.800,89.055 368.800 C 89.796 368.800,90.000 368.585,90.000 367.800 C 90.000 366.976,88.678 366.255,88.349 366.900 M310.000 367.800 C 310.000 368.575,310.206 368.800,310.913 368.800 C 311.598 368.800,311.846 368.550,311.908 367.800 C 311.976 366.979,311.813 366.800,310.996 366.800 C 310.200 366.800,310.000 367.001,310.000 367.800 M93.329 371.040 C 93.086 371.674,93.778 372.382,94.653 372.394 C 95.145 372.401,95.654 370.987,95.290 370.623 C 94.825 370.158,93.565 370.426,93.329 371.040 M304.800 371.400 C 304.800 372.465,305.526 372.714,306.320 371.920 C 307.114 371.126,306.865 370.400,305.800 370.400 C 305.000 370.400,304.800 370.600,304.800 371.400 M96.942 373.300 C 97.040 373.941,97.365 374.211,98.072 374.239 C 98.907 374.273,99.037 374.128,98.886 373.339 C 98.632 372.010,96.740 371.972,96.942 373.300 M301.200 373.397 C 301.200 374.205,301.371 374.369,302.100 374.260 C 303.471 374.053,303.585 372.400,302.228 372.400 C 301.399 372.400,301.200 372.593,301.200 373.397 M102.400 376.800 C 102.400 377.387,102.667 377.600,103.400 377.600 C 104.133 377.600,104.400 377.387,104.400 376.800 C 104.400 376.213,104.133 376.000,103.400 376.000 C 102.667 376.000,102.400 376.213,102.400 376.800 M295.600 376.800 C 295.600 377.387,295.867 377.600,296.600 377.600 C 297.333 377.600,297.600 377.387,297.600 376.800 C 297.600 376.213,297.333 376.000,296.600 376.000 C 295.867 376.000,295.600 376.213,295.600 376.800 M106.072 378.500 C 106.268 379.881,108.000 379.996,108.000 378.628 C 108.000 377.791,107.809 377.600,106.972 377.600 C 106.135 377.600,105.968 377.767,106.072 378.500 M292.000 378.600 C 292.000 379.542,293.938 380.210,294.031 379.300 C 294.047 379.135,294.122 378.685,294.195 378.300 C 294.298 377.763,294.058 377.600,293.165 377.600 C 292.189 377.600,292.000 377.762,292.000 378.600 M109.400 380.000 C 109.002 380.643,109.570 381.200,110.624 381.200 C 111.333 381.200,111.600 380.982,111.600 380.400 C 111.600 379.539,109.878 379.226,109.400 380.000 M288.400 380.213 C 288.400 380.549,288.670 380.929,289.000 381.055 C 289.912 381.405,290.819 380.914,290.550 380.215 C 290.238 379.401,288.400 379.399,288.400 380.213 M112.955 382.089 C 113.020 383.361,114.945 383.362,115.128 382.090 C 115.235 381.343,115.067 381.200,114.082 381.200 C 113.123 381.200,112.918 381.362,112.955 382.089 M284.800 381.953 C 284.800 382.752,286.347 383.413,286.906 382.854 C 287.483 382.277,286.735 381.200,285.757 381.200 C 285.086 381.200,284.800 381.425,284.800 381.953 M117.300 383.110 C 116.080 383.307,116.159 384.324,117.419 384.640 C 118.508 384.914,118.907 384.711,119.039 383.816 C 119.136 383.152,118.539 382.909,117.300 383.110 M280.876 383.900 C 280.968 384.379,281.386 384.600,282.200 384.600 C 283.014 384.600,283.432 384.379,283.524 383.900 C 283.632 383.337,283.374 383.200,282.200 383.200 C 281.026 383.200,280.768 383.337,280.876 383.900 M121.600 385.138 C 121.600 385.597,122.962 386.800,123.481 386.800 C 123.712 386.800,123.900 386.350,123.900 385.800 C 123.900 384.965,123.710 384.800,122.750 384.800 C 122.118 384.800,121.600 384.952,121.600 385.138 M276.305 385.785 C 276.130 386.701,276.222 386.798,277.154 386.673 C 278.471 386.496,278.628 385.061,277.351 384.879 C 276.711 384.788,276.453 385.012,276.305 385.785 M125.700 386.658 C 124.840 387.017,125.153 387.973,126.219 388.240 C 127.389 388.534,127.475 388.484,127.662 387.400 C 127.802 386.586,126.789 386.202,125.700 386.658 M272.142 387.058 C 271.996 387.466,271.804 387.935,271.715 388.100 C 271.626 388.265,272.174 388.400,272.934 388.400 C 274.104 388.400,275.230 387.496,274.709 386.975 C 274.088 386.355,272.374 386.410,272.142 387.058 M130.806 388.900 C 130.816 389.705,131.339 390.197,132.234 390.242 C 132.901 390.276,133.031 390.097,132.887 389.342 C 132.694 388.333,130.794 387.929,130.806 388.900 M267.200 389.213 C 267.200 390.205,268.347 390.728,268.834 389.958 C 269.459 388.972,269.226 388.400,268.200 388.400 C 267.462 388.400,267.200 388.612,267.200 389.213 M135.511 390.340 C 133.955 390.711,134.668 391.583,136.626 391.703 C 137.966 391.786,138.200 391.681,138.200 391.000 C 138.200 390.123,137.324 389.908,135.511 390.340 M261.867 390.267 C 260.443 391.691,262.909 392.570,264.538 391.219 C 265.247 390.631,265.239 390.596,264.338 390.343 C 263.040 389.979,262.181 389.952,261.867 390.267 M141.372 392.700 C 141.493 393.546,143.021 393.847,143.822 393.182 C 144.791 392.377,144.476 392.000,142.835 392.000 C 141.574 392.000,141.290 392.135,141.372 392.700 M256.000 392.825 C 256.000 393.511,256.213 393.630,257.264 393.525 C 259.137 393.340,259.225 392.000,257.365 392.000 C 256.253 392.000,256.000 392.153,256.000 392.825 M146.955 394.500 C 146.995 395.293,147.213 395.400,148.800 395.400 C 150.362 395.400,150.617 395.281,150.728 394.500 C 150.846 393.671,150.700 393.600,148.882 393.600 C 147.089 393.600,146.913 393.682,146.955 394.500 M249.200 394.613 C 249.200 395.530,249.340 395.618,250.700 395.544 C 253.824 395.376,254.281 393.600,251.200 393.600 C 249.327 393.600,249.200 393.664,249.200 394.613 M154.074 396.300 C 154.244 397.194,157.931 397.551,158.455 396.724 C 159.075 395.746,158.804 395.600,156.371 395.600 C 154.273 395.600,153.959 395.696,154.074 396.300 M241.372 396.300 C 241.537 397.444,246.000 397.560,246.000 396.420 C 246.000 395.686,245.753 395.600,243.635 395.600 C 241.612 395.600,241.285 395.701,241.372 396.300 M162.800 398.000 C 162.800 398.440,162.935 398.820,163.100 398.844 C 166.546 399.352,168.400 399.119,168.400 398.179 C 168.400 397.234,168.304 397.200,165.600 397.200 C 163.067 397.200,162.800 397.276,162.800 398.000 M231.600 398.155 C 231.600 399.590,236.924 399.538,237.128 398.100 C 237.250 397.239,237.132 397.200,234.428 397.200 C 231.714 397.200,231.600 397.238,231.600 398.155 M176.300 399.087 C 173.674 399.484,175.538 400.000,179.600 400.000 C 183.960 400.000,185.391 399.535,182.500 399.057 C 180.915 398.795,178.137 398.808,176.300 399.087 M217.100 399.087 C 214.278 399.514,216.460 400.000,221.200 400.000 C 224.060 400.000,226.400 399.846,226.400 399.658 C 226.400 399.042,219.992 398.648,217.100 399.087 " stroke="none" fill="#fafafb" fill-rule="evenodd"></path><path id="path1" d="M183.499 0.500 C 183.371 0.881,181.484 0.980,175.566 0.914 C 171.294 0.867,168.025 0.927,168.300 1.047 C 168.575 1.168,168.800 1.612,168.800 2.033 C 168.800 2.749,168.459 2.800,163.637 2.800 C 158.672 2.800,158.483 2.831,158.684 3.600 C 158.924 4.518,158.944 4.515,154.100 4.406 L 150.800 4.332 150.800 5.366 C 150.800 6.392,150.775 6.400,147.600 6.400 C 144.667 6.400,144.400 6.467,144.400 7.200 C 144.400 8.069,144.262 8.099,140.700 8.004 C 138.458 7.945,138.400 7.971,138.400 9.013 C 138.400 10.080,138.395 10.082,135.700 9.941 C 133.155 9.808,132.993 9.852,132.872 10.700 C 132.755 11.524,132.533 11.600,130.240 11.600 C 127.901 11.600,127.739 11.659,127.768 12.500 C 127.802 13.450,126.142 14.064,125.645 13.285 C 125.226 12.627,123.600 13.503,123.600 14.387 C 123.600 15.125,121.678 15.539,119.541 15.261 C 119.399 15.243,119.375 15.581,119.488 16.014 C 119.675 16.731,119.483 16.800,117.302 16.800 C 114.967 16.800,114.915 16.824,115.102 17.800 C 115.285 18.758,115.209 18.800,113.315 18.800 C 111.520 18.800,111.339 18.884,111.368 19.700 C 111.397 20.516,111.241 20.588,109.700 20.473 C 108.108 20.354,108.000 20.412,108.000 21.373 C 108.000 22.324,107.866 22.400,106.200 22.400 C 104.667 22.400,104.400 22.519,104.400 23.200 C 104.400 23.867,104.133 24.000,102.800 24.000 C 101.360 24.000,101.200 24.100,101.200 25.000 C 101.200 25.844,101.013 26.000,100.000 26.000 C 99.067 26.000,98.800 26.178,98.800 26.800 C 98.800 27.477,98.533 27.600,97.068 27.600 C 95.530 27.600,95.340 27.700,95.368 28.500 C 95.397 29.315,95.220 29.398,93.500 29.375 C 91.774 29.352,91.600 29.434,91.600 30.275 C 91.600 30.933,91.369 31.200,90.800 31.200 C 90.212 31.200,90.000 31.467,90.000 32.207 C 90.000 33.142,89.878 33.207,88.300 33.107 C 86.803 33.013,86.585 33.107,86.472 33.900 C 86.392 34.465,86.067 34.800,85.600 34.800 C 85.133 34.800,84.808 35.135,84.728 35.700 C 84.613 36.509,84.409 36.588,82.700 36.480 C 81.563 36.408,80.800 36.529,80.800 36.780 C 80.800 37.011,80.950 37.200,81.133 37.200 C 81.317 37.200,81.467 37.460,81.467 37.778 C 81.467 38.096,81.362 38.344,81.233 38.330 C 79.907 38.187,79.200 38.490,79.200 39.200 C 79.200 39.733,78.933 40.000,78.400 40.000 C 77.813 40.000,77.600 40.267,77.600 41.000 C 77.600 41.832,77.409 42.000,76.462 42.000 C 75.832 42.000,75.001 42.357,74.600 42.800 C 74.202 43.240,73.454 43.600,72.938 43.600 C 72.267 43.600,72.000 43.827,72.000 44.400 C 72.000 44.933,71.733 45.200,71.200 45.200 C 70.613 45.200,70.400 45.467,70.400 46.200 C 70.400 46.921,70.185 47.200,69.628 47.200 C 69.132 47.200,68.810 47.522,68.728 48.100 C 68.646 48.678,68.278 49.046,67.700 49.128 C 67.122 49.210,66.800 49.532,66.800 50.028 C 66.800 50.533,66.524 50.800,66.000 50.800 C 65.476 50.800,65.200 51.067,65.200 51.572 C 65.200 52.068,64.878 52.390,64.300 52.472 C 63.722 52.554,63.354 52.922,63.272 53.500 C 63.190 54.078,62.868 54.400,62.372 54.400 C 61.874 54.400,61.600 54.676,61.600 55.178 C 61.600 55.823,61.274 55.977,59.700 56.078 C 58.107 56.180,57.800 56.329,57.800 57.000 C 57.800 57.521,57.533 57.801,57.033 57.802 C 56.611 57.803,56.201 57.997,56.122 58.235 C 56.043 58.472,56.336 58.651,56.773 58.633 C 57.210 58.615,57.563 58.780,57.558 59.000 C 57.554 59.220,57.201 59.357,56.775 59.305 C 56.160 59.229,56.000 59.456,56.000 60.405 C 56.000 61.333,55.822 61.600,55.200 61.600 C 54.667 61.600,54.400 61.867,54.400 62.400 C 54.400 62.924,54.133 63.200,53.628 63.200 C 53.132 63.200,52.810 63.522,52.728 64.100 C 52.646 64.678,52.278 65.046,51.700 65.128 C 51.122 65.210,50.800 65.532,50.800 66.028 C 50.800 66.533,50.524 66.800,50.000 66.800 C 49.413 66.800,49.200 67.067,49.200 67.800 C 49.200 68.600,49.000 68.800,48.200 68.800 C 47.467 68.800,47.200 69.013,47.200 69.600 C 47.200 70.187,46.933 70.400,46.200 70.400 C 45.467 70.400,45.200 70.613,45.200 71.200 C 45.200 71.733,44.933 72.000,44.400 72.000 C 43.818 72.000,43.600 72.267,43.600 72.976 C 43.600 73.513,43.420 74.064,43.200 74.200 C 42.980 74.336,42.800 74.221,42.800 73.944 C 42.800 73.549,42.695 73.545,42.315 73.925 C 42.049 74.191,41.883 75.127,41.946 76.005 C 42.053 77.482,41.985 77.600,41.031 77.600 C 40.267 77.600,40.000 77.807,40.000 78.400 C 40.000 78.933,39.733 79.200,39.200 79.200 C 38.667 79.200,38.400 79.467,38.400 80.000 C 38.400 80.591,38.133 80.800,37.380 80.800 C 36.413 80.800,36.366 80.899,36.480 82.700 C 36.588 84.409,36.509 84.613,35.700 84.728 C 35.135 84.808,34.800 85.133,34.800 85.600 C 34.800 86.067,34.465 86.392,33.900 86.472 C 33.107 86.585,33.013 86.803,33.107 88.300 C 33.207 89.878,33.142 90.000,32.207 90.000 C 31.467 90.000,31.200 90.212,31.200 90.800 C 31.200 91.400,30.933 91.600,30.133 91.600 C 29.547 91.600,29.180 91.714,29.319 91.853 C 29.458 91.992,29.392 92.442,29.172 92.853 C 28.893 93.373,28.906 93.600,29.214 93.600 C 29.457 93.600,29.598 94.005,29.528 94.500 C 29.437 95.141,29.141 95.391,28.500 95.368 C 27.585 95.336,27.415 95.806,27.584 97.900 C 27.643 98.624,27.451 98.800,26.603 98.800 C 25.740 98.800,25.572 98.963,25.675 99.700 C 25.777 100.432,25.632 100.577,24.900 100.475 C 24.069 100.359,24.000 100.504,24.000 102.375 C 24.000 104.133,23.895 104.400,23.200 104.400 C 22.516 104.400,22.400 104.667,22.400 106.247 C 22.400 107.983,22.342 108.082,21.435 107.909 C 20.355 107.702,19.819 108.976,20.484 110.165 C 20.947 110.991,20.561 111.600,19.576 111.600 C 18.787 111.600,18.651 112.031,18.788 114.100 C 18.849 115.021,18.701 115.200,17.877 115.200 C 17.230 115.200,16.822 115.474,16.684 116.000 C 16.569 116.440,16.649 116.800,16.863 116.800 C 17.076 116.800,17.194 117.385,17.125 118.100 C 17.021 119.178,16.847 119.384,16.102 119.305 C 15.608 119.253,15.224 119.343,15.249 119.505 C 15.605 121.803,15.134 123.984,14.300 123.895 C 13.452 123.806,13.408 123.925,13.534 125.953 C 13.666 128.078,13.654 128.104,12.634 127.909 C 11.611 127.713,11.600 127.737,11.600 130.228 C 11.600 132.533,11.524 132.755,10.700 132.872 C 9.850 132.993,9.808 133.152,9.945 135.755 L 10.089 138.510 9.011 138.304 L 7.933 138.098 8.011 140.749 C 8.121 144.484,8.112 144.523,7.200 144.284 C 6.447 144.087,6.400 144.272,6.400 147.437 C 6.400 150.736,6.382 150.800,5.423 150.800 C 4.324 150.800,3.952 152.694,4.453 155.737 C 4.786 157.759,4.480 158.800,3.553 158.800 C 2.857 158.800,2.800 159.166,2.800 163.600 L 2.800 168.400 1.743 168.400 L 0.686 168.400 0.970 175.345 C 1.216 181.369,1.170 182.372,0.627 182.916 C -0.321 183.863,-0.325 216.590,0.622 216.953 C 1.166 217.162,1.215 218.104,1.011 224.396 L 0.776 231.600 1.788 231.600 L 2.800 231.600 2.800 236.600 C 2.800 241.333,2.843 241.600,3.600 241.600 C 4.533 241.600,4.532 241.595,4.411 245.900 L 4.319 249.200 5.359 249.200 C 6.399 249.200,6.400 249.205,6.400 252.600 C 6.400 255.733,6.463 256.000,7.200 256.000 C 8.087 256.000,8.086 255.997,8.006 259.449 C 7.949 261.882,7.956 261.898,8.987 261.700 L 10.026 261.502 9.913 264.051 C 9.808 266.430,9.860 266.609,10.700 266.728 C 11.527 266.845,11.600 267.065,11.600 269.428 C 11.600 270.843,11.735 271.979,11.900 271.953 C 13.438 271.710,13.657 271.999,13.529 274.100 C 13.411 276.019,13.478 276.211,14.300 276.328 C 15.108 276.443,15.203 276.687,15.232 278.728 C 15.249 279.978,15.354 280.775,15.465 280.500 C 16.188 278.708,17.291 280.797,16.943 283.300 C 16.749 284.700,16.804 284.800,17.767 284.800 C 18.725 284.800,18.800 284.931,18.800 286.600 C 18.800 288.115,18.923 288.400,19.576 288.400 C 20.561 288.400,20.947 289.009,20.484 289.835 C 19.819 291.024,20.355 292.298,21.435 292.091 C 22.351 291.916,22.400 292.008,22.400 293.916 C 22.400 295.728,22.478 295.905,23.200 295.716 C 23.923 295.527,24.000 295.704,24.000 297.553 C 24.000 299.291,24.114 299.600,24.753 299.600 C 25.170 299.600,25.600 299.957,25.716 300.400 C 25.841 300.879,26.262 301.200,26.763 301.200 C 27.488 301.200,27.600 301.440,27.600 303.000 C 27.600 304.674,27.673 304.800,28.645 304.800 C 29.658 304.800,29.682 304.857,29.421 306.600 C 29.161 308.335,29.188 308.400,30.175 308.400 C 30.933 308.400,31.200 308.608,31.200 309.200 C 31.200 309.788,31.467 310.000,32.207 310.000 C 33.142 310.000,33.207 310.122,33.107 311.700 C 33.013 313.197,33.107 313.415,33.900 313.528 C 34.465 313.608,34.800 313.933,34.800 314.400 C 34.800 314.867,35.135 315.192,35.700 315.272 C 36.509 315.387,36.588 315.591,36.480 317.300 C 36.366 319.101,36.413 319.200,37.380 319.200 C 38.133 319.200,38.400 319.409,38.400 320.000 C 38.400 320.533,38.667 320.800,39.200 320.800 C 39.733 320.800,40.000 321.067,40.000 321.600 C 40.000 322.191,40.267 322.400,41.018 322.400 C 41.972 322.400,42.031 322.514,41.944 324.192 C 41.893 325.178,41.963 326.096,42.099 326.232 C 42.450 326.583,43.257 326.016,43.000 325.600 C 42.883 325.410,42.974 325.139,43.203 324.998 C 43.432 324.856,43.594 324.889,43.563 325.070 C 43.294 326.617,43.667 328.000,44.353 328.000 C 44.770 328.000,45.200 328.357,45.316 328.800 C 45.441 329.279,45.862 329.600,46.363 329.600 C 46.933 329.600,47.200 329.855,47.200 330.400 C 47.200 330.840,47.380 331.223,47.600 331.250 C 47.820 331.278,48.225 331.322,48.500 331.350 C 48.775 331.378,49.058 331.805,49.128 332.300 C 49.210 332.878,49.532 333.200,50.028 333.200 C 50.533 333.200,50.800 333.476,50.800 334.000 C 50.800 334.531,51.067 334.800,51.592 334.800 C 52.104 334.800,52.474 335.154,52.636 335.800 C 52.793 336.426,53.170 336.800,53.643 336.800 C 54.184 336.800,54.400 337.086,54.400 337.800 C 54.400 338.533,54.613 338.800,55.200 338.800 C 55.848 338.800,56.000 339.067,56.000 340.200 C 56.000 340.970,56.191 341.600,56.424 341.600 C 56.657 341.600,56.744 341.767,56.618 341.971 C 56.491 342.176,56.796 342.405,57.294 342.481 C 57.792 342.557,58.155 342.840,58.100 343.109 C 58.045 343.379,58.167 343.600,58.371 343.600 C 58.576 343.600,59.026 343.883,59.371 344.229 C 59.717 344.574,60.000 344.664,60.000 344.429 C 60.000 344.193,60.360 344.000,60.800 344.000 C 61.333 344.000,61.600 344.267,61.600 344.800 C 61.600 345.333,61.867 345.600,62.400 345.600 C 62.987 345.600,63.200 345.867,63.200 346.600 C 63.200 347.400,63.400 347.600,64.200 347.600 C 64.933 347.600,65.200 347.813,65.200 348.400 C 65.200 348.933,65.467 349.200,66.000 349.200 C 66.524 349.200,66.800 349.467,66.800 349.972 C 66.800 350.468,67.122 350.790,67.700 350.872 C 68.341 350.963,68.591 351.259,68.568 351.900 C 68.544 352.585,68.759 352.800,69.468 352.800 C 70.195 352.800,70.400 353.020,70.400 353.800 C 70.400 354.533,70.613 354.800,71.200 354.800 C 71.733 354.800,72.000 355.067,72.000 355.600 C 72.000 356.256,72.271 356.402,73.500 356.413 C 74.761 356.423,74.899 356.503,74.365 356.913 C 73.245 357.772,73.908 358.312,75.816 358.097 C 77.527 357.904,77.600 357.939,77.600 358.948 C 77.600 359.733,77.803 360.000,78.400 360.000 C 78.924 360.000,79.200 360.267,79.200 360.772 C 79.200 361.268,79.522 361.590,80.100 361.672 C 80.741 361.763,80.991 362.059,80.968 362.700 C 80.939 363.516,81.120 363.600,82.915 363.600 C 84.696 363.600,84.872 363.680,84.684 364.400 C 84.518 365.036,84.672 365.200,85.437 365.200 C 86.209 365.200,86.400 365.408,86.400 366.245 C 86.400 367.258,86.457 367.282,88.200 367.021 C 89.935 366.761,90.000 366.788,90.000 367.775 C 90.000 368.533,90.208 368.800,90.800 368.800 C 91.391 368.800,91.600 369.067,91.600 369.820 C 91.600 370.787,91.699 370.834,93.500 370.720 C 95.270 370.608,95.391 370.662,95.275 371.500 C 95.160 372.323,95.310 372.400,97.021 372.400 C 98.792 372.400,98.883 372.453,98.706 373.380 C 98.603 373.919,98.627 374.348,98.759 374.333 C 99.838 374.209,100.400 374.506,100.400 375.200 C 100.400 375.893,100.667 376.000,102.400 376.000 C 104.133 376.000,104.400 376.107,104.400 376.800 C 104.400 377.615,104.815 377.750,106.900 377.612 C 107.834 377.551,108.000 377.695,108.000 378.570 C 108.000 379.637,108.290 379.758,110.500 379.612 C 111.370 379.555,111.600 379.713,111.600 380.370 C 111.600 381.090,111.844 381.200,113.447 381.200 C 115.214 381.200,115.285 381.244,115.097 382.227 C 114.910 383.203,114.983 383.251,116.550 383.190 C 119.037 383.093,119.166 383.136,119.000 384.000 C 118.859 384.734,119.061 384.800,121.441 384.800 C 123.284 384.800,124.016 384.945,123.970 385.300 C 123.792 386.675,124.014 386.839,125.900 386.720 C 127.670 386.608,127.791 386.662,127.675 387.500 C 127.556 388.356,127.680 388.400,130.221 388.400 C 132.837 388.400,132.889 388.420,132.707 389.375 C 132.523 390.339,132.551 390.349,135.360 390.275 C 138.069 390.203,138.199 390.242,138.168 391.100 C 138.138 391.959,138.278 392.000,141.268 392.000 C 144.377 392.000,144.843 392.197,143.920 393.120 C 143.547 393.493,144.268 393.600,147.167 393.600 L 150.893 393.600 150.702 394.600 L 150.511 395.600 154.682 395.600 C 158.672 395.600,158.843 395.635,158.600 396.400 C 158.355 397.171,158.528 397.200,163.373 397.200 L 168.400 397.200 168.400 398.220 L 168.400 399.241 176.066 399.120 C 181.929 399.028,183.771 399.118,183.899 399.500 C 184.029 399.889,187.609 400.000,200.000 400.000 C 212.391 400.000,215.971 399.889,216.101 399.500 C 216.229 399.118,218.071 399.028,223.934 399.120 L 231.600 399.241 231.600 398.220 L 231.600 397.200 236.577 397.200 C 241.339 397.200,241.547 397.165,241.400 396.400 C 241.254 395.643,241.461 395.600,245.223 395.600 C 249.198 395.600,249.200 395.600,249.200 394.600 C 249.200 393.612,249.240 393.600,252.600 393.600 C 255.733 393.600,256.000 393.537,256.000 392.800 C 256.000 392.077,256.267 392.000,258.772 392.000 C 261.342 392.000,261.554 391.934,261.672 391.100 C 261.793 390.247,261.950 390.207,264.652 390.339 L 267.504 390.479 267.305 389.439 C 267.110 388.419,267.149 388.400,269.366 388.400 C 271.344 388.400,271.668 388.288,271.961 387.500 C 272.245 386.735,272.589 386.600,274.248 386.600 C 275.983 386.600,276.215 386.497,276.331 385.675 C 276.426 385.006,276.702 384.770,277.331 384.820 C 280.124 385.041,281.128 384.811,280.916 384.000 C 280.722 383.260,280.914 383.196,283.453 383.154 C 284.964 383.128,285.885 383.025,285.500 382.924 C 284.389 382.634,284.611 381.200,285.767 381.200 C 286.298 381.200,286.824 381.425,286.935 381.700 C 287.096 382.100,287.143 382.100,287.168 381.700 C 287.186 381.425,287.543 381.200,287.963 381.200 C 288.528 381.200,288.671 380.993,288.516 380.400 C 288.274 379.477,290.170 379.195,290.535 380.100 C 290.696 380.500,290.743 380.500,290.768 380.100 C 290.786 379.825,291.070 379.600,291.400 379.600 C 291.773 379.600,292.000 379.222,292.000 378.600 C 292.000 377.681,292.147 377.600,293.800 377.600 C 295.333 377.600,295.600 377.481,295.600 376.800 C 295.600 376.107,295.867 376.000,297.600 376.000 C 299.333 376.000,299.600 375.893,299.600 375.200 C 299.600 374.667,299.867 374.400,300.400 374.400 C 300.987 374.400,301.200 374.133,301.200 373.400 C 301.200 372.481,301.347 372.400,303.000 372.400 C 304.666 372.400,304.800 372.324,304.800 371.373 C 304.800 370.412,304.908 370.354,306.500 370.473 C 308.004 370.585,308.215 370.496,308.328 369.700 C 308.410 369.122,308.732 368.800,309.228 368.800 C 309.794 368.800,310.000 368.521,310.000 367.755 C 310.000 366.742,310.057 366.718,311.800 366.979 C 313.535 367.239,313.600 367.212,313.600 366.225 C 313.600 365.467,313.808 365.200,314.400 365.200 C 314.933 365.200,315.200 364.933,315.200 364.400 C 315.200 363.582,315.635 363.435,317.726 363.548 C 318.395 363.583,318.751 363.444,318.602 363.204 C 318.465 362.982,318.543 362.800,318.776 362.800 C 319.009 362.800,319.200 362.530,319.200 362.200 C 319.200 361.867,319.556 361.600,320.000 361.600 C 320.533 361.600,320.800 361.333,320.800 360.800 C 320.800 360.267,321.067 360.000,321.600 360.000 C 322.192 360.000,322.400 359.733,322.400 358.973 C 322.400 358.012,322.509 357.954,324.099 358.073 C 325.542 358.181,325.858 358.064,326.194 357.300 C 326.412 356.805,326.907 356.400,327.295 356.400 C 327.733 356.400,328.000 356.097,328.000 355.600 C 328.000 355.067,328.267 354.800,328.800 354.800 C 329.387 354.800,329.600 354.533,329.600 353.800 C 329.600 353.070,329.814 352.800,330.392 352.800 C 330.904 352.800,331.274 352.446,331.436 351.800 C 331.593 351.174,331.970 350.800,332.443 350.800 C 332.933 350.800,333.200 350.518,333.200 350.000 C 333.200 349.476,333.467 349.200,333.973 349.200 C 334.398 349.200,334.854 348.859,334.986 348.443 C 335.118 348.027,335.581 347.594,336.013 347.481 C 336.480 347.359,336.800 346.934,336.800 346.437 C 336.800 345.811,337.052 345.600,337.800 345.600 C 338.533 345.600,338.800 345.387,338.800 344.800 C 338.800 344.152,339.067 344.000,340.200 344.000 C 340.970 344.000,341.600 343.801,341.600 343.557 C 341.600 343.314,341.330 343.218,341.000 343.345 C 340.635 343.485,340.400 343.345,340.400 342.987 C 340.400 342.278,341.257 342.217,341.920 342.880 C 342.414 343.374,342.595 342.936,342.422 341.665 C 342.372 341.298,342.608 341.212,343.174 341.392 C 343.903 341.623,344.000 341.487,344.000 340.227 C 344.000 339.067,344.150 338.800,344.800 338.800 C 345.381 338.800,345.600 338.533,345.600 337.828 C 345.600 337.124,345.849 336.820,346.500 336.728 C 347.078 336.646,347.446 336.278,347.528 335.700 C 347.610 335.122,347.932 334.800,348.428 334.800 C 348.933 334.800,349.200 334.524,349.200 334.000 C 349.200 333.455,349.467 333.200,350.037 333.200 C 350.525 333.200,350.958 332.881,351.074 332.437 C 351.184 332.017,351.617 331.584,352.037 331.474 C 352.481 331.358,352.800 330.925,352.800 330.437 C 352.800 329.811,353.052 329.600,353.800 329.600 C 354.533 329.600,354.800 329.387,354.800 328.800 C 354.800 328.267,355.067 328.000,355.600 328.000 C 356.281 328.000,356.400 327.733,356.400 326.200 C 356.400 324.667,356.519 324.400,357.200 324.400 C 357.787 324.400,358.000 324.133,358.000 323.400 C 358.000 322.600,358.200 322.400,359.000 322.400 C 359.733 322.400,360.000 322.187,360.000 321.600 C 360.000 321.067,360.267 320.800,360.800 320.800 C 361.333 320.800,361.600 320.533,361.600 320.000 C 361.600 319.413,361.867 319.200,362.600 319.200 C 363.533 319.200,363.600 319.067,363.600 317.200 C 363.600 315.467,363.707 315.200,364.400 315.200 C 364.933 315.200,365.200 314.933,365.200 314.400 C 365.200 313.813,365.467 313.600,366.200 313.600 C 367.119 313.600,367.200 313.453,367.200 311.800 C 367.200 310.267,367.319 310.000,368.000 310.000 C 368.524 310.000,368.800 309.733,368.800 309.228 C 368.800 308.732,369.122 308.410,369.700 308.328 C 370.493 308.215,370.587 307.997,370.493 306.500 C 370.393 304.922,370.458 304.800,371.393 304.800 C 372.320 304.800,372.400 304.657,372.400 303.000 C 372.400 301.347,372.481 301.200,373.400 301.200 C 374.133 301.200,374.400 300.987,374.400 300.400 C 374.400 299.867,374.667 299.600,375.200 299.600 C 375.893 299.600,376.000 299.333,376.000 297.600 C 376.000 295.867,376.107 295.600,376.800 295.600 C 377.484 295.600,377.600 295.333,377.600 293.753 C 377.600 291.999,377.650 291.916,378.600 292.098 C 379.659 292.300,379.777 291.999,379.612 289.500 C 379.555 288.630,379.713 288.400,380.370 288.400 C 381.087 288.400,381.200 288.155,381.200 286.600 C 381.200 284.947,381.281 284.800,382.200 284.800 C 383.136 284.800,383.200 284.670,383.200 282.753 C 383.200 280.915,383.280 280.728,383.986 280.912 C 384.419 281.025,384.757 281.001,384.739 280.859 C 384.399 278.243,384.860 276.400,385.856 276.400 C 386.889 276.400,386.906 276.356,386.673 274.384 C 386.451 272.509,386.503 272.341,387.417 271.994 C 388.312 271.653,388.400 271.402,388.400 269.192 C 388.400 266.767,389.059 266.081,390.122 267.400 C 390.300 267.620,390.390 266.450,390.322 264.800 C 390.205 261.911,390.233 261.801,391.100 261.832 C 391.954 261.862,392.000 261.715,392.000 258.932 C 392.000 256.267,392.073 256.000,392.800 256.000 C 393.537 256.000,393.600 255.733,393.600 252.600 C 393.600 249.240,393.612 249.200,394.600 249.200 C 395.596 249.200,395.600 249.187,395.600 245.400 C 395.600 241.867,395.656 241.600,396.400 241.600 C 397.157 241.600,397.200 241.333,397.200 236.600 L 397.200 231.600 398.200 231.600 L 399.200 231.600 399.200 224.200 C 399.200 219.533,399.348 216.800,399.600 216.800 C 399.860 216.800,400.000 211.000,400.000 200.200 C 400.000 189.400,399.860 183.600,399.600 183.600 C 399.347 183.600,399.200 180.800,399.200 176.000 L 399.200 168.400 398.212 168.400 L 397.225 168.400 397.112 163.500 C 397.012 159.118,396.926 158.606,396.300 158.656 C 395.692 158.704,395.201 153.653,395.533 150.759 C 395.548 150.627,395.127 150.601,394.597 150.703 C 393.649 150.884,393.632 150.836,393.517 147.543 C 393.415 144.617,393.313 144.215,392.700 144.318 C 392.083 144.421,392.000 144.063,392.000 141.286 C 392.000 138.277,391.960 138.138,391.100 138.168 C 390.239 138.199,390.206 138.083,390.341 135.500 C 390.481 132.822,390.473 132.800,389.441 132.800 C 388.432 132.800,388.400 132.724,388.400 130.333 C 388.400 128.977,388.286 127.980,388.147 128.119 C 387.282 128.985,386.447 127.513,386.601 125.393 C 386.755 123.283,386.728 123.210,385.946 123.629 C 384.875 124.202,384.863 124.178,384.761 121.345 C 384.683 119.197,384.585 118.931,383.936 119.101 C 383.287 119.270,383.200 119.033,383.200 117.102 C 383.200 114.981,383.168 114.917,382.200 115.102 C 381.104 115.312,380.656 113.486,381.700 113.065 C 382.100 112.904,382.100 112.857,381.700 112.832 C 381.425 112.814,381.200 112.530,381.200 112.200 C 381.200 111.859,380.841 111.600,380.370 111.600 C 379.713 111.600,379.555 111.370,379.612 110.500 C 379.757 108.303,379.634 108.000,378.600 108.000 C 377.681 108.000,377.600 107.853,377.600 106.200 C 377.600 104.667,377.481 104.400,376.800 104.400 C 376.107 104.400,376.000 104.133,376.000 102.400 C 376.000 101.300,375.865 100.421,375.700 100.447 C 374.784 100.592,374.400 100.299,374.400 99.455 C 374.400 98.664,374.238 98.542,373.400 98.702 C 372.449 98.884,372.400 98.802,372.400 97.021 C 372.400 95.310,372.323 95.160,371.500 95.275 C 370.824 95.369,370.568 95.176,370.472 94.500 C 370.402 94.005,370.512 93.600,370.717 93.600 C 370.922 93.600,371.003 93.150,370.898 92.600 C 370.758 91.867,370.453 91.600,369.753 91.600 C 369.067 91.600,368.800 91.376,368.800 90.800 C 368.800 90.267,368.533 90.000,368.000 90.000 C 367.319 90.000,367.200 89.733,367.200 88.200 C 367.200 86.547,367.119 86.400,366.200 86.400 C 365.467 86.400,365.200 86.187,365.200 85.600 C 365.200 85.067,364.933 84.800,364.400 84.800 C 363.705 84.800,363.600 84.533,363.600 82.775 C 363.600 80.904,363.531 80.759,362.700 80.875 C 362.024 80.969,361.768 80.776,361.672 80.100 C 361.590 79.522,361.268 79.200,360.772 79.200 C 360.267 79.200,360.000 78.924,360.000 78.400 C 360.000 77.802,359.733 77.600,358.946 77.600 C 357.926 77.600,357.899 77.540,358.138 75.800 C 358.384 74.002,358.245 73.796,356.900 73.970 C 356.614 74.007,356.400 73.600,356.400 73.018 C 356.400 72.267,356.190 72.000,355.600 72.000 C 355.067 72.000,354.800 71.733,354.800 71.200 C 354.800 70.613,354.533 70.400,353.800 70.400 C 353.067 70.400,352.800 70.187,352.800 69.600 C 352.800 69.069,352.533 68.800,352.008 68.800 C 351.496 68.800,351.126 68.446,350.964 67.800 C 350.807 67.174,350.430 66.800,349.957 66.800 C 348.983 66.800,348.935 65.335,349.900 65.058 C 350.285 64.948,349.940 64.952,349.133 65.067 C 347.825 65.254,347.651 65.175,347.533 64.338 C 347.446 63.722,347.091 63.356,346.500 63.272 C 345.922 63.190,345.600 62.868,345.600 62.372 C 345.600 61.876,345.324 61.600,344.827 61.600 C 344.280 61.600,344.016 61.277,343.927 60.500 C 343.855 59.881,343.581 59.444,343.300 59.500 C 343.025 59.555,342.800 59.336,342.800 59.013 C 342.800 58.629,343.031 58.514,343.466 58.681 C 343.913 58.852,344.036 58.783,343.842 58.468 C 343.683 58.211,343.220 58.000,342.814 58.000 C 342.256 58.000,342.123 57.780,342.272 57.100 C 342.431 56.377,342.385 56.318,342.041 56.800 C 341.671 57.318,341.611 57.305,341.606 56.700 C 341.601 56.168,341.264 56.000,340.200 56.000 C 338.894 56.000,338.798 55.913,338.768 54.700 C 338.751 53.985,338.646 53.625,338.535 53.900 C 338.147 54.863,336.800 54.475,336.800 53.400 C 336.800 52.667,336.587 52.400,336.000 52.400 C 335.467 52.400,335.200 52.133,335.200 51.600 C 335.200 51.013,334.933 50.800,334.200 50.800 C 333.128 50.800,332.732 49.440,333.700 49.081 C 333.975 48.979,333.570 48.919,332.800 48.948 C 331.633 48.991,331.379 48.850,331.272 48.100 C 331.190 47.522,330.868 47.200,330.372 47.200 C 329.815 47.200,329.600 46.921,329.600 46.200 C 329.600 45.467,329.387 45.200,328.800 45.200 C 328.267 45.200,328.000 44.933,328.000 44.400 C 328.000 43.719,327.733 43.600,326.200 43.600 C 324.667 43.600,324.400 43.481,324.400 42.800 C 324.400 42.213,324.133 42.000,323.400 42.000 C 322.600 42.000,322.400 41.800,322.400 41.000 C 322.400 40.267,322.187 40.000,321.600 40.000 C 321.067 40.000,320.800 39.733,320.800 39.200 C 320.800 38.667,320.533 38.400,320.000 38.400 C 319.292 38.400,318.982 37.779,319.153 36.700 C 319.179 36.535,318.840 36.400,318.400 36.400 C 317.483 36.400,317.380 36.803,318.100 37.579 C 318.421 37.925,318.434 38.024,318.134 37.856 C 317.878 37.713,317.568 37.821,317.446 38.098 C 317.323 38.374,317.263 38.252,317.312 37.827 C 317.372 37.296,317.087 36.977,316.400 36.810 C 315.772 36.658,315.352 36.239,315.272 35.684 C 315.191 35.121,314.863 34.800,314.372 34.800 C 313.810 34.800,313.600 34.521,313.600 33.775 C 313.600 32.788,313.535 32.761,311.800 33.021 C 310.057 33.282,310.000 33.258,310.000 32.245 C 310.000 31.467,309.796 31.200,309.200 31.200 C 308.608 31.200,308.400 30.933,308.400 30.175 C 308.400 29.188,308.335 29.161,306.600 29.421 C 304.857 29.682,304.800 29.658,304.800 28.645 C 304.800 27.572,304.365 27.401,302.100 27.584 C 301.372 27.643,301.200 27.452,301.200 26.585 C 301.200 25.659,301.072 25.545,300.257 25.750 C 299.425 25.959,299.336 25.869,299.503 24.993 C 299.686 24.040,299.610 24.000,297.647 24.000 C 295.867 24.000,295.600 23.896,295.600 23.200 C 295.600 22.380,295.185 22.249,293.047 22.393 C 291.999 22.464,291.912 22.373,292.097 21.404 C 292.297 20.358,292.264 20.339,290.451 20.468 C 288.789 20.587,288.587 20.508,288.472 19.700 C 288.361 18.917,288.107 18.800,286.526 18.800 C 284.801 18.800,284.717 18.748,284.898 17.800 C 285.107 16.707,284.970 16.664,281.700 16.793 C 279.827 16.867,279.702 16.755,280.629 15.829 C 281.272 15.185,280.123 14.959,277.331 15.180 C 276.702 15.230,276.426 14.994,276.331 14.325 C 276.212 13.486,275.994 13.400,274.000 13.400 C 272.023 13.400,271.787 13.309,271.672 12.500 C 271.556 11.684,271.327 11.600,269.200 11.600 C 267.073 11.600,266.844 11.516,266.728 10.700 C 266.608 9.859,266.432 9.808,264.050 9.920 L 261.499 10.040 261.699 8.994 C 261.898 7.954,261.886 7.949,259.449 8.006 C 255.997 8.086,256.000 8.087,256.000 7.200 C 256.000 6.462,255.733 6.400,252.553 6.400 L 249.107 6.400 249.305 5.362 L 249.504 4.324 246.052 4.412 C 241.125 4.539,241.103 4.535,241.400 3.600 C 241.645 2.828,241.472 2.800,236.494 2.800 C 231.299 2.800,230.007 2.332,231.761 1.088 C 232.002 0.917,228.616 0.827,224.235 0.888 C 218.138 0.974,216.230 0.883,216.102 0.500 C 215.971 0.111,212.350 0.000,199.800 0.000 C 187.250 0.000,183.629 0.111,183.499 0.500 M148.200 85.059 C 149.520 85.740,151.230 86.622,152.000 87.017 C 152.770 87.413,153.490 87.866,153.600 88.024 C 153.710 88.181,154.475 88.591,155.300 88.935 C 156.125 89.278,156.800 89.729,156.800 89.936 C 156.800 90.144,157.295 90.437,157.900 90.588 C 158.505 90.739,159.294 91.127,159.652 91.450 C 160.011 91.773,161.001 92.410,161.852 92.865 C 164.244 94.145,166.052 95.166,167.800 96.225 C 168.680 96.758,169.973 97.463,170.673 97.791 C 171.373 98.119,172.060 98.573,172.200 98.800 C 172.340 99.027,173.027 99.473,173.727 99.792 C 174.427 100.111,175.720 100.832,176.600 101.394 C 177.480 101.956,178.875 102.710,179.700 103.069 C 180.525 103.428,181.200 103.855,181.200 104.017 C 181.200 104.180,181.875 104.617,182.700 104.987 C 184.661 105.868,186.638 106.968,187.400 107.600 C 188.190 108.256,190.209 109.392,192.100 110.245 C 192.925 110.617,193.600 111.055,193.600 111.217 C 193.600 111.380,194.275 111.808,195.100 112.168 C 195.925 112.527,197.410 113.350,198.400 113.996 C 199.390 114.642,200.740 115.456,201.400 115.807 C 202.992 116.651,204.731 117.655,206.200 118.578 C 208.204 119.837,210.696 122.721,212.033 125.329 L 213.300 127.800 213.501 138.859 C 213.752 152.645,213.612 154.033,211.879 154.944 C 211.176 155.314,209.880 156.057,209.000 156.594 C 208.120 157.132,206.860 157.855,206.200 158.201 C 205.540 158.547,204.190 159.352,203.200 159.990 C 201.151 161.311,200.006 161.987,197.979 163.072 C 197.197 163.491,196.026 164.186,195.377 164.617 C 192.082 166.803,189.089 168.434,188.214 168.520 C 187.415 168.598,187.395 168.361,187.161 156.000 C 186.934 144.021,186.687 140.800,185.993 140.800 C 185.825 140.800,185.413 140.125,185.077 139.300 C 184.043 136.754,181.336 134.303,176.474 131.511 C 175.663 131.045,174.280 130.245,173.400 129.732 C 172.520 129.219,171.197 128.520,170.459 128.178 C 169.722 127.835,168.912 127.376,168.659 127.156 C 168.205 126.762,166.912 126.033,163.800 124.419 C 162.920 123.962,161.480 123.154,160.600 122.623 C 159.720 122.093,158.100 121.199,157.000 120.637 C 155.900 120.076,154.370 119.215,153.600 118.724 C 152.830 118.234,151.570 117.514,150.800 117.125 C 150.030 116.736,149.130 116.249,148.800 116.042 C 145.028 113.688,138.261 113.040,134.548 114.678 C 133.477 115.150,132.330 115.636,132.000 115.756 C 131.670 115.876,130.500 116.511,129.400 117.167 C 128.300 117.824,126.680 118.725,125.800 119.170 C 124.171 119.995,123.387 120.453,121.592 121.628 C 121.038 121.991,120.138 122.424,119.592 122.591 C 119.047 122.758,118.319 123.141,117.975 123.442 C 117.202 124.118,111.931 127.016,109.900 127.882 C 109.075 128.234,108.400 128.655,108.400 128.817 C 108.400 128.980,107.725 129.413,106.900 129.780 C 106.075 130.147,104.680 130.880,103.800 131.409 C 102.920 131.937,101.567 132.719,100.793 133.146 C 97.591 134.911,94.928 138.210,93.664 141.978 C 92.323 145.977,92.324 181.702,93.666 186.138 C 95.484 192.151,97.631 194.236,108.000 200.058 C 109.650 200.985,111.094 201.879,111.208 202.046 C 111.323 202.213,111.863 202.543,112.408 202.778 C 112.954 203.014,114.300 203.747,115.400 204.407 C 116.500 205.067,117.940 205.882,118.600 206.218 C 119.260 206.555,120.610 207.356,121.600 208.000 C 122.590 208.644,124.024 209.454,124.786 209.801 C 125.548 210.147,126.268 210.573,126.386 210.747 C 126.504 210.921,127.140 211.341,127.800 211.680 C 128.460 212.020,130.260 212.996,131.800 213.849 L 134.600 215.400 140.000 215.400 C 145.362 215.400,149.926 214.139,151.031 212.351 C 151.154 212.151,151.827 211.714,152.527 211.380 C 153.227 211.045,154.520 210.332,155.400 209.795 C 156.280 209.258,157.450 208.622,157.999 208.382 C 158.549 208.141,159.301 207.670,159.672 207.335 C 160.379 206.695,162.138 205.660,164.273 204.628 C 164.973 204.289,165.660 203.827,165.800 203.600 C 165.940 203.373,166.627 202.914,167.327 202.580 C 168.027 202.245,169.320 201.535,170.200 201.001 C 172.202 199.786,174.138 198.642,176.200 197.455 C 177.080 196.949,178.430 196.153,179.200 195.686 C 179.970 195.220,181.950 194.078,183.600 193.148 C 185.250 192.218,186.690 191.330,186.800 191.174 C 186.910 191.018,187.630 190.600,188.400 190.245 C 189.170 189.890,190.520 189.180,191.400 188.667 C 192.280 188.155,194.260 187.050,195.800 186.212 C 199.790 184.042,204.896 181.204,205.600 180.765 C 205.930 180.558,206.920 180.030,207.800 179.589 C 208.680 179.149,210.120 178.352,211.000 177.818 C 211.880 177.284,213.275 176.547,214.100 176.180 C 214.925 175.813,215.600 175.370,215.600 175.196 C 215.600 175.021,216.095 174.679,216.700 174.436 C 217.305 174.193,218.610 173.453,219.600 172.792 C 220.590 172.132,222.075 171.296,222.900 170.935 C 223.725 170.574,224.400 170.145,224.400 169.983 C 224.400 169.820,225.120 169.399,226.000 169.047 C 226.880 168.695,227.600 168.252,227.600 168.064 C 227.600 167.876,228.275 167.428,229.100 167.069 C 229.925 166.710,231.320 165.958,232.200 165.399 C 233.080 164.840,234.250 164.172,234.800 163.915 C 235.350 163.658,236.160 163.145,236.600 162.775 C 237.040 162.406,237.871 161.855,238.448 161.552 C 239.564 160.964,241.594 159.781,244.200 158.199 C 245.080 157.665,246.373 156.955,247.073 156.620 C 247.773 156.286,248.442 155.855,248.560 155.664 C 249.376 154.344,257.101 151.600,260.000 151.600 C 263.322 151.600,272.014 155.103,275.149 157.705 C 275.507 158.002,276.250 158.464,276.800 158.731 C 277.350 158.997,278.520 159.647,279.400 160.174 C 280.280 160.701,281.720 161.506,282.600 161.962 C 283.480 162.418,284.920 163.249,285.800 163.810 C 286.680 164.370,287.940 165.098,288.600 165.429 C 289.260 165.759,290.610 166.560,291.600 167.207 C 292.590 167.854,293.789 168.557,294.265 168.769 C 295.119 169.149,298.293 170.961,301.136 172.691 C 301.941 173.182,303.275 173.884,304.100 174.252 C 304.925 174.620,305.600 175.055,305.600 175.217 C 305.600 175.380,306.275 175.808,307.100 176.168 C 307.925 176.527,309.410 177.354,310.400 178.004 C 311.390 178.655,312.470 179.313,312.800 179.467 C 313.512 179.798,320.614 183.820,322.724 185.086 C 323.536 185.573,324.740 186.232,325.400 186.550 C 328.763 188.172,331.836 192.266,332.838 196.461 C 333.945 201.096,334.018 264.055,332.923 269.089 C 331.893 273.818,327.896 279.054,323.800 281.040 C 323.140 281.360,321.700 282.154,320.600 282.805 C 319.500 283.456,318.060 284.267,317.400 284.608 C 316.740 284.949,315.533 285.627,314.719 286.114 C 312.203 287.618,305.433 291.461,304.800 291.745 C 304.470 291.892,303.390 292.545,302.400 293.196 C 301.410 293.846,299.925 294.673,299.100 295.032 C 298.275 295.392,297.600 295.820,297.600 295.983 C 297.600 296.145,296.925 296.583,296.100 296.955 C 294.013 297.897,292.067 299.016,291.272 299.732 C 290.903 300.065,290.105 300.461,289.500 300.612 C 288.895 300.763,288.400 301.027,288.400 301.199 C 288.400 301.371,287.635 301.898,286.700 302.369 C 285.765 302.840,284.280 303.658,283.400 304.185 C 282.520 304.713,281.260 305.433,280.600 305.785 C 279.940 306.137,278.680 306.845,277.800 307.359 C 265.023 314.810,265.533 314.603,260.000 314.585 C 255.961 314.571,255.229 314.462,254.000 313.686 C 253.230 313.200,252.313 312.802,251.961 312.801 C 251.610 312.801,250.913 312.445,250.414 312.012 C 249.914 311.578,249.121 311.107,248.652 310.965 C 248.184 310.822,247.530 310.478,247.200 310.200 C 246.870 309.922,245.520 309.116,244.200 308.409 C 242.880 307.701,240.180 306.156,238.200 304.976 C 236.220 303.795,233.925 302.533,233.100 302.171 C 232.275 301.809,231.600 301.370,231.600 301.196 C 231.600 301.021,231.105 300.681,230.500 300.441 C 229.895 300.200,228.500 299.465,227.400 298.809 C 226.300 298.152,224.828 297.296,224.128 296.907 C 221.938 295.690,215.962 292.240,214.448 291.319 C 213.652 290.835,212.550 290.215,212.000 289.942 C 211.450 289.669,210.730 289.232,210.400 288.971 C 209.865 288.549,206.607 286.725,202.882 284.762 C 202.157 284.380,201.299 283.849,200.977 283.581 C 200.295 283.015,198.377 281.920,196.446 280.994 C 193.378 279.522,189.054 275.473,188.598 273.643 C 188.455 273.069,188.037 272.266,187.669 271.858 C 187.071 271.195,187.000 269.648,187.000 257.258 L 187.000 243.400 190.200 241.498 C 191.960 240.452,193.670 239.413,194.000 239.190 C 194.798 238.650,197.095 237.390,198.673 236.628 C 199.373 236.289,200.060 235.827,200.200 235.600 C 200.340 235.373,201.027 234.914,201.727 234.580 C 202.427 234.245,203.720 233.535,204.600 233.002 C 205.480 232.468,206.740 231.733,207.400 231.368 C 208.060 231.002,208.900 230.441,209.267 230.120 C 209.634 229.798,210.354 229.595,210.867 229.668 L 211.800 229.800 212.000 241.800 C 212.128 249.469,212.360 254.089,212.644 254.600 C 212.888 255.040,213.197 255.981,213.332 256.691 C 213.811 259.221,217.442 263.684,220.148 265.070 C 220.836 265.423,221.490 265.822,221.600 265.956 C 221.710 266.090,222.430 266.517,223.200 266.906 C 224.503 267.562,225.731 268.253,229.800 270.618 C 230.680 271.129,232.024 271.836,232.786 272.189 C 233.548 272.542,234.268 272.959,234.386 273.116 C 234.504 273.272,235.809 274.030,237.287 274.800 C 238.765 275.570,240.760 276.650,241.720 277.200 C 244.928 279.037,246.595 280.005,247.200 280.383 C 248.247 281.038,250.353 282.060,253.911 283.640 C 256.406 284.749,262.902 284.724,264.600 283.600 C 265.260 283.163,266.181 282.804,266.646 282.803 C 267.111 282.801,267.945 282.444,268.499 282.008 C 269.053 281.572,269.932 281.027,270.453 280.797 C 270.974 280.566,272.840 279.482,274.600 278.388 C 276.360 277.293,278.475 276.101,279.300 275.738 C 280.125 275.376,280.800 274.945,280.800 274.783 C 280.800 274.620,281.475 274.192,282.300 273.832 C 283.125 273.473,284.610 272.650,285.600 272.004 C 286.590 271.358,287.940 270.555,288.600 270.218 C 289.260 269.882,290.700 269.067,291.800 268.407 C 292.900 267.747,294.172 267.042,294.626 266.841 C 295.081 266.640,296.161 266.005,297.026 265.431 C 297.892 264.856,298.960 264.164,299.400 263.893 C 300.685 263.101,303.725 259.866,304.679 258.274 C 306.324 255.531,306.463 253.319,306.328 232.200 L 306.200 212.200 304.942 209.600 C 303.079 205.746,300.518 203.215,296.200 200.958 C 295.540 200.613,294.100 199.807,293.000 199.168 C 291.900 198.529,290.446 197.746,289.768 197.426 C 289.091 197.107,288.304 196.566,288.019 196.223 C 287.735 195.880,287.188 195.600,286.805 195.600 C 286.422 195.600,285.655 195.244,285.101 194.808 C 284.547 194.372,283.668 193.822,283.147 193.584 C 282.626 193.346,281.300 192.633,280.200 192.000 C 279.100 191.367,277.774 190.654,277.253 190.416 C 276.732 190.178,275.853 189.628,275.299 189.192 C 274.745 188.756,273.984 188.400,273.608 188.400 C 273.232 188.400,272.607 188.050,272.221 187.623 C 271.834 187.195,271.014 186.735,270.400 186.600 C 269.786 186.465,268.966 186.005,268.579 185.577 C 268.193 185.150,267.589 184.794,267.238 184.786 C 266.887 184.779,265.880 184.425,265.000 184.000 C 262.702 182.890,255.793 182.871,253.444 183.968 C 252.540 184.390,251.530 184.841,251.200 184.969 C 250.870 185.098,249.700 185.747,248.600 186.411 C 247.500 187.075,245.925 187.911,245.100 188.270 C 244.275 188.628,243.600 189.052,243.600 189.212 C 243.600 189.372,243.015 189.740,242.300 190.029 C 241.585 190.319,240.550 190.859,240.000 191.229 C 237.695 192.780,232.661 195.600,232.198 195.600 C 231.923 195.600,231.465 195.880,231.181 196.223 C 230.896 196.566,230.109 197.112,229.432 197.437 C 228.754 197.762,227.480 198.469,226.600 199.008 C 225.720 199.547,224.280 200.359,223.400 200.811 C 222.520 201.264,221.080 202.075,220.200 202.614 C 219.320 203.153,217.970 203.883,217.200 204.237 C 216.430 204.590,215.524 205.125,215.186 205.424 C 214.848 205.723,213.498 206.536,212.186 207.230 C 210.874 207.923,209.516 208.740,209.169 209.045 C 208.821 209.350,208.399 209.600,208.230 209.600 C 208.062 209.600,207.356 210.005,206.662 210.499 C 205.180 211.555,203.436 212.571,201.900 213.273 C 201.295 213.549,200.800 213.917,200.800 214.091 C 200.800 214.264,200.080 214.695,199.200 215.047 C 198.320 215.399,197.600 215.835,197.600 216.016 C 197.600 216.198,197.225 216.465,196.766 216.611 C 195.890 216.889,191.944 219.213,191.600 219.654 C 191.490 219.795,190.770 220.202,190.000 220.560 C 189.230 220.917,187.160 222.102,185.400 223.193 C 183.640 224.284,181.771 225.367,181.248 225.599 C 180.724 225.830,179.796 226.375,179.186 226.810 C 178.576 227.244,177.811 227.600,177.487 227.600 C 177.163 227.600,176.665 227.880,176.381 228.223 C 176.096 228.566,175.309 229.107,174.632 229.426 C 173.954 229.745,172.680 230.447,171.800 230.986 C 170.920 231.525,169.480 232.341,168.600 232.800 C 167.720 233.259,166.280 234.074,165.400 234.611 C 164.520 235.149,163.080 235.954,162.200 236.402 C 161.320 236.849,159.160 238.101,157.400 239.183 C 155.640 240.265,153.480 241.521,152.600 241.974 C 151.720 242.426,150.066 243.310,148.924 243.938 C 142.123 247.679,136.440 247.111,127.400 241.787 C 126.520 241.269,125.080 240.468,124.200 240.008 C 122.463 239.100,120.698 238.093,118.200 236.583 C 117.320 236.052,115.970 235.298,115.200 234.908 C 114.430 234.519,113.664 233.989,113.497 233.730 C 113.330 233.472,112.565 233.053,111.797 232.799 C 111.029 232.545,110.400 232.191,110.400 232.012 C 110.400 231.833,109.725 231.393,108.900 231.034 C 107.383 230.374,105.358 229.255,102.800 227.664 C 102.030 227.185,100.642 226.429,99.717 225.985 C 98.791 225.541,97.923 225.000,97.789 224.783 C 97.655 224.565,96.973 224.119,96.273 223.791 C 95.573 223.463,94.280 222.752,93.400 222.211 C 92.520 221.671,91.246 220.962,90.568 220.637 C 89.891 220.312,89.113 219.777,88.841 219.449 C 88.568 219.120,87.819 218.736,87.177 218.595 C 86.535 218.454,85.895 218.154,85.756 217.928 C 85.616 217.703,84.939 217.260,84.251 216.944 C 83.563 216.628,82.190 215.842,81.200 215.196 C 80.210 214.550,78.725 213.727,77.900 213.368 C 77.075 213.008,76.400 212.567,76.400 212.388 C 76.400 212.209,75.808 211.867,75.084 211.628 C 73.792 211.201,69.600 207.559,69.600 206.863 C 69.600 206.668,69.227 206.033,68.770 205.453 C 66.491 202.556,66.399 200.954,66.409 164.475 C 66.418 133.020,66.464 130.830,67.169 128.179 C 68.243 124.145,71.280 120.045,74.144 118.764 C 74.615 118.553,75.720 117.942,76.600 117.405 C 77.480 116.868,78.773 116.154,79.474 115.819 C 80.175 115.485,81.395 114.772,82.186 114.236 C 82.976 113.699,84.383 112.868,85.311 112.389 C 86.240 111.910,87.720 111.087,88.600 110.560 C 89.480 110.033,90.958 109.237,91.883 108.790 C 92.809 108.343,93.677 107.800,93.811 107.583 C 93.945 107.365,94.627 106.914,95.327 106.580 C 96.027 106.245,97.320 105.529,98.200 104.989 C 99.080 104.448,100.430 103.716,101.200 103.361 C 101.970 103.007,102.846 102.510,103.148 102.258 C 103.449 102.006,104.889 101.129,106.348 100.309 C 107.806 99.489,109.705 98.409,110.567 97.909 C 111.428 97.409,112.958 96.521,113.967 95.935 C 114.975 95.349,116.340 94.578,117.000 94.221 C 117.660 93.864,118.920 93.129,119.800 92.589 C 120.680 92.048,122.030 91.314,122.800 90.958 C 123.570 90.602,124.290 90.172,124.400 90.002 C 124.510 89.833,125.251 89.358,126.046 88.947 C 126.842 88.536,128.462 87.666,129.646 87.014 C 136.913 83.012,142.994 82.372,148.200 85.059 " stroke="none" fill="#8b5beb" fill-rule="evenodd"></path></g></svg>